<?xml version="1.0" encoding="UTF-8"?>
<svg width="20px" height="20px" viewBox="0 0 20 20" version="1.1" xmlns="http://www.w3.org/2000/svg" xmlns:xlink="http://www.w3.org/1999/xlink">
    <g id="Page-1" stroke="none" stroke-width="1" fill="none" fill-rule="evenodd">
        <g id="Artboard-Copy-16" fill-rule="nonzero">
            <path d="M12,14.7481779 L13.6,14.7481779 L13.6,7.94607075 L6.4,7.94607075 L6.4,14.7481779 L10.8000341,14.7481779 L10.8010244,10.6746089 C10.7751357,10.2228162 10.4169089,9.86034171 10,9.83487155 C9.55695967,9.83487155 9.2,10.1960639 9.2,10.638824 L9.2,13.4720252 C9.2,13.8103814 8.93137085,14.0846733 8.6,14.0846733 C8.26862915,14.0846733 8,13.8103814 8,13.4720252 L8,10.638824 C8,9.5168503 8.89664303,8.60957527 10.034418,8.61058408 C11.0917705,8.67261806 11.9373886,9.52826316 12,10.638824 L12,14.7481779 L12,14.7481779 Z M14.8,7.94607075 L14.8,14.7481779 L17,14.7481779 C17.3313708,14.7481779 17.6,15.0224698 17.6,15.360826 C17.6,15.6991822 17.3313708,15.9734741 17,15.9734741 L3,15.9734741 C2.66862915,15.9734741 2.4,15.6991822 2.4,15.360826 C2.4,15.0224698 2.66862915,14.7481779 3,14.7481779 L5.2,14.7481779 L5.2,7.94607075 L4.06666667,7.94607075 L4.06666667,13.4720252 C4.06666667,13.8103814 3.79803752,14.0846733 3.46666667,14.0846733 C3.13529582,14.0846733 2.86666667,13.8103814 2.86666667,13.4720252 L2.86666667,7.9460634 L2.32394456,7.94605675 C1.81626272,7.94255288 1.37702359,7.58275316 1.2670472,7.07693295 C1.1567519,6.56964597 1.4076589,6.05354091 1.8614368,5.83748862 L9.25753248,2.18538349 C9.72287363,1.93944965 10.2771264,1.93944965 10.7280299,2.17800296 L18.1262936,5.83380111 C18.5876744,6.05354091 18.8385814,6.56964597 18.7282861,7.07693295 C18.6183097,7.58275316 18.1790706,7.94255288 17.6673333,7.94607075 L17.1333333,7.94607075 L17.1333333,13.4720252 C17.1333333,13.8103814 16.8647042,14.0846733 16.5333333,14.0846733 C16.2019625,14.0846733 15.9333333,13.8103814 15.9333333,13.4720252 L15.9333333,7.94607075 L14.8,7.94607075 Z M1.6,18 C1.26862915,18 1,17.7257081 1,17.3873519 C1,17.0489956 1.26862915,16.7747037 1.6,16.7747037 L18.4,16.7747037 C18.7313708,16.7747037 19,17.0489956 19,17.3873519 C19,17.7257081 18.7313708,18 18.4,18 L1.6,18 Z M17.1667126,6.72078798 L10.1908658,3.27355783 C10.0714631,3.21045324 9.92853689,3.21045324 9.7945632,3.28100425 L2.82883089,6.72078798 L3.46666656,6.72077447 L17.1667126,6.72078798 Z" id="Shape"></path>
        </g>
    </g>
</svg>