<?xml version="1.0" encoding="UTF-8"?>
<svg width="20px" height="20px" viewBox="0 0 20 20" version="1.1" xmlns="http://www.w3.org/2000/svg" xmlns:xlink="http://www.w3.org/1999/xlink">
    <!-- Generator: Sketch 53.2 (72643) - https://sketchapp.com -->
    <title>fintech_1</title>
    <desc>Created with Sketch.</desc>
    <g id="Page-1" stroke="none" stroke-width="1" fill="none" fill-rule="evenodd">
        <g id="Artboard-Copy-15" fill="#FFFFFF" fill-rule="nonzero">
            <path d="M14.2091108,6.03042876 C12.7684954,6.22272839 11.6405937,7.47199708 11.6109115,9.01065716 C11.6034511,9.39738665 11.2875015,9.70477466 10.9052184,9.6972275 C10.5229352,9.68968034 10.2190814,9.37005596 10.2265418,8.98332647 C10.262612,7.11352752 11.4186842,5.53283753 13.0296537,4.8999361 C12.0932015,3.83864254 10.7074304,3.27544341 9.28377294,3.42438758 C7.54359381,3.60644651 6.06823171,4.81890665 5.51690582,6.52338392 C5.42414831,6.81015273 5.16026752,7.00458958 4.86200856,7.00593578 C3.51280355,7.01202543 2.41145232,8.12205182 2.38443558,9.48780556 C2.39352981,10.1695965 2.6674406,10.8190409 3.14471754,11.2921417 C3.62039404,11.7636562 4.25888468,12.0212275 4.93222385,12.0085786 L5.46978736,12.0085786 C5.85214329,12.0085786 6.16210401,12.3221445 6.16210401,12.7089476 C6.16210401,13.0957507 5.85214329,13.4093166 5.46978736,13.4093166 L4.94520262,13.4091935 C3.91296121,13.4287734 2.91613172,13.0266457 2.17564704,12.2926401 C1.43676281,11.560221 1.01394759,10.5577231 1,9.48344074 C1.0385455,7.50693528 2.49214284,5.88908762 4.36596491,5.6387931 C5.18845183,3.64794813 7.01221971,2.25383055 9.14133669,2.03108063 C11.2819643,1.80712646 13.3550742,2.80661654 14.5521126,4.60421931 C14.5946603,4.60378828 14.6373496,4.60398041 14.6801719,4.60480412 C14.7471807,4.60609306 14.8117846,4.61697165 14.8727287,4.63612124 C17.1286391,4.76261785 18.9393885,6.64166675 19,9.00878053 C18.963964,11.1742807 17.4025927,12.9987958 15.2827318,13.3242176 L14.6278817,13.4042597 C14.2482865,13.4506576 13.9033833,13.1769686 13.8575189,12.7929583 C13.8116546,12.408948 14.0821968,12.0600333 14.461792,12.0136355 L15.0957169,11.9364792 C16.5238796,11.7170186 17.5908506,10.4702269 17.6157017,9.01531092 C17.5722654,7.33593197 16.2215202,6.00757543 14.5790454,6.03042876 L14.2091108,6.03042876 L14.2091108,6.03042876 Z M15.9095345,15.4754052 C16.2918904,15.4754052 16.6018512,15.7889711 16.6018512,16.1757742 C16.6018512,16.5625774 16.2918904,16.8761433 15.9095345,16.8761433 L12.4434522,16.8761433 C12.0610963,16.8761433 11.7511356,16.5625774 11.7511356,16.1757742 L11.7511356,12.6739292 C11.7511356,12.287126 12.0610963,11.9735601 12.4434522,11.9735601 C12.8258081,11.9735601 13.1357689,12.287126 13.1357689,12.6739292 L13.1357689,15.4754052 L15.9095345,15.4754052 Z M10.0048686,13.4093166 L9.30766505,13.4093166 L9.30766505,12.7089476 C9.30766505,12.3221445 9.61762577,12.0085786 9.99998169,12.0085786 L10.0048686,12.0085786 C10.5051906,12.0085786 10.7343338,12.4200778 10.6922983,12.7970041 L10.6922983,18.2107927 C10.6922983,18.5975958 10.3823376,18.9111617 9.99998169,18.9111617 C9.61762577,18.9111617 9.30766505,18.5975958 9.30766505,18.2107927 L9.30766505,13.4093166 L8.24882783,13.4093166 L8.24882783,16.2107927 C8.24882783,16.5975958 7.93886711,16.9111617 7.55651118,16.9111617 L4.09042887,16.9111617 C3.70807295,16.9111617 3.39811223,16.5975958 3.39811223,16.2107927 C3.39811223,15.8239896 3.70807295,15.5104237 4.09042887,15.5104237 L6.86419454,15.5104237 L6.86419454,12.7089476 C6.86419454,12.3221445 7.17415526,12.0085786 7.55651118,12.0085786 L10.0048686,12.0085786 L10.0048686,13.4093166 L9.99998169,13.4093166 L9.99998169,12.7089476 L10.6922983,12.7089476 L10.6922983,12.7970041 C10.6567788,13.115503 10.4276356,13.4093166 10.0048686,13.4093166 Z" id="Shape"></path>
        </g>
    </g>
</svg>