<?xml version="1.0" encoding="UTF-8"?>
<svg width="20px" height="20px" viewBox="0 0 20 20" version="1.1" xmlns="http://www.w3.org/2000/svg" xmlns:xlink="http://www.w3.org/1999/xlink">
    <g id="Page-1" stroke="none" stroke-width="1" fill="none" fill-rule="evenodd">
        <g id="Artboard-Copy-17" fill="#FFFFFF" fill-rule="nonzero">
            <path d="M16.5297701,11.5060543 L18.382937,11.5060543 C18.7209657,11.5060543 18.9949921,11.7774195 18.9949921,12.1121654 L18.9933099,15.3938091 C19.0260794,15.8306008 18.8606699,16.2585632 18.5421868,16.5655336 C18.2274631,16.8688804 17.7941689,17.0244619 17.3968482,16.9952704 L2.66770374,16.9921337 C2.21898695,17.0375176 1.77214791,16.8849629 1.45045806,16.5749016 C1.12476411,16.2609811 0.962403885,15.8191815 1.00737209,15.4387162 L1.00737209,12.1121654 C1.00737209,11.7774195 1.2813985,11.5060543 1.61942721,11.5060543 L3.47259411,11.5060543 L3.47259411,5.68678534 L2.5433283,5.6865891 C2.45364667,5.67751857 2.36535204,5.70766312 2.30424642,5.76655986 C2.24714491,5.82159723 2.21995386,5.89558698 2.23148234,6.03405777 L2.23148234,9.8358301 C2.23148234,10.170576 1.95745592,10.4419412 1.61942721,10.4419412 C1.2813985,10.4419412 1.00737209,10.170576 1.00737209,9.8358301 L1.01089852,6.09902787 C0.962403885,5.65359249 1.12476411,5.21179289 1.45045806,4.89787232 C1.77214791,4.58781111 2.21898695,4.43525641 2.60551602,4.47750355 L17.3463981,4.4795661 C17.790005,4.44323222 18.2285315,4.59766998 18.5459494,4.90361369 C18.8672216,5.21327234 19.0314822,5.64657957 18.9949921,6.03405777 L18.9949921,9.8358301 C18.9949921,10.170576 18.7209657,10.4419412 18.382937,10.4419412 C18.0449083,10.4419412 17.7708819,10.170576 17.7708819,9.8358301 L17.7732014,5.98133985 C17.7799157,5.90518277 17.7510645,5.82907535 17.6921611,5.77230123 C17.6294034,5.71181217 17.53941,5.6801188 17.3968482,5.68972582 L16.5297701,5.68954271 L16.5297701,11.5060543 Z M15.3056598,11.5060543 L15.3056598,5.68928421 L4.69670436,5.68704384 L4.69670436,11.5060543 L5.56378245,11.5060543 C5.90181116,11.5060543 6.17583758,11.7774195 6.17583758,12.1121654 C6.17583758,12.4469113 5.90181116,12.7182765 5.56378245,12.7182765 L4.69670436,12.7182765 L4.69670436,14.4882731 C4.69670436,14.823019 4.42267795,15.0943842 4.08464924,15.0943842 C3.74662053,15.0943842 3.47259411,14.823019 3.47259411,14.4882731 L3.47259411,12.7182765 L2.23085211,12.7182765 L2.2279559,15.5036863 C2.21995386,15.577187 2.24714491,15.6511767 2.30424642,15.7062141 C2.36535204,15.7651108 2.45364667,15.7952554 2.60551602,15.7830481 L17.4398188,15.7845438 C17.5334853,15.7910721 17.624571,15.7583662 17.6883984,15.6968461 C17.7484663,15.6389496 17.7784057,15.5614876 17.7708819,15.4387162 L17.7708819,12.7182765 L16.5297701,12.7182765 L16.5297701,14.4882731 C16.5297701,14.823019 16.2557437,15.0943842 15.917715,15.0943842 C15.5796862,15.0943842 15.3056598,14.823019 15.3056598,14.4882731 L15.3056598,12.7182765 L14.4385817,12.7182765 C14.100553,12.7182765 13.8265266,12.4469113 13.8265266,12.1121654 C13.8265266,11.7774195 14.100553,11.5060543 14.4385817,11.5060543 L15.3056598,11.5060543 Z M12.4664041,11.5060543 C12.8044328,11.5060543 13.0784592,11.7774195 13.0784592,12.1121654 C13.0784592,12.4469113 12.8044328,12.7182765 12.4664041,12.7182765 L7.53596007,12.7182765 C7.19793136,12.7182765 6.92390495,12.4469113 6.92390495,12.1121654 C6.92390495,11.7774195 7.19793136,11.5060543 7.53596007,11.5060543 L12.4664041,11.5060543 Z M6.66812839,3.52810961 C6.68489737,3.86244339 6.42480229,4.14693639 6.08718977,4.16354252 C5.74957726,4.18014864 5.4622943,3.92257948 5.44552532,3.5882457 C5.42394852,3.15805513 5.59141082,2.74010518 5.90465606,2.43818332 C6.21431988,2.13971341 6.6378111,1.9820767 7.04291567,2.00162344 L12.9306815,2.00229328 C13.3645531,1.9820767 13.7880443,2.13971341 14.0977081,2.43818332 C14.4109534,2.74010518 14.5784157,3.15805513 14.5568389,3.5882457 C14.5400699,3.92257948 14.2527869,4.18014864 13.9151744,4.16354252 C13.5775619,4.14693639 13.3174668,3.86244339 13.3342358,3.52810961 C13.3383052,3.44697584 13.3062336,3.36693214 13.2439198,3.30687085 C13.1780245,3.2433576 13.0848452,3.20867333 12.9594485,3.2138457 L7.01414864,3.21317586 C6.91751903,3.20867333 6.82433968,3.2433576 6.75844442,3.30687085 C6.69613056,3.36693214 6.66405902,3.44697584 6.66812839,3.52810961 Z M10.0011821,9.26083615 C9.59273074,9.26083615 9.26161549,8.94169025 9.26161549,8.54800384 C9.26161549,8.15431742 9.59273074,7.83517153 10.0011821,7.83517153 C10.4096335,7.83517153 10.7407487,8.15431742 10.7407487,8.54800384 C10.7407487,8.94169025 10.4096335,9.26083615 10.0011821,9.26083615 Z" id="Combined-Shape"></path>
        </g>
    </g>
</svg>