<?xml version="1.0" encoding="UTF-8"?>
<svg width="20px" height="20px" viewBox="0 0 20 20" version="1.1" xmlns="http://www.w3.org/2000/svg" xmlns:xlink="http://www.w3.org/1999/xlink">
    <g id="Page-1" stroke="none" stroke-width="1" fill="none" fill-rule="evenodd">
        <g id="Artboard-Copy-18" fill="#FFFFFF" fill-rule="nonzero">
            <path d="M15.5257274,13.143662 L15.5257274,14.9018198 L17.421543,14.9018799 C17.6700259,14.8918197 17.8654143,14.7044099 17.8755096,14.4750078 C17.8888476,14.1719199 18.1512677,13.9367774 18.4616412,13.9498023 C18.7720147,13.9628272 19.0128096,14.2190873 18.9994716,14.5221753 C18.9641043,15.3258467 18.2967163,15.9659826 17.4448441,16 L14.9932524,15.9992309 C14.9833104,15.9997415 14.9733,16 14.9632277,16 C14.9530316,16 14.9428989,15.9997351 14.9328364,15.9992119 L2.48176425,15.9953057 C1.71495456,15.8967763 1.10887987,15.3154501 1,14.4985915 L1,5.45352113 L1,4.50140845 C1,3.66997615 1.69849873,3 2.55514622,3 L14.9632277,3 C15.2738878,3 15.5257274,3.2459281 15.5257274,3.54929577 C15.5257274,3.85266345 15.2738878,4.09859155 14.9632277,4.09859155 L2.55514622,4.09859155 C2.31534664,4.09859155 2.12499939,4.28116613 2.12499939,4.50140845 L2.12499939,4.96245113 C2.26168884,4.92452814 2.40602128,4.90422535 2.55514622,4.90422535 L17.4448441,4.90422535 C18.3014915,4.90422535 18.9999903,5.5742015 18.9999903,6.4056338 L18.9999903,12.5943662 C18.9999903,12.74605 18.9370304,12.883374 18.8352379,12.982777 C18.7334455,13.0821799 18.5928206,13.143662 18.4374906,13.143662 L15.5257274,13.143662 Z M14.4007281,13.143662 L11.4889649,13.143662 C7.76102576,13.143662 7.76102576,7.76056338 11.4889649,7.76056338 L14.4007281,7.76056338 L14.4007281,6.0028169 L2.55514622,6.0028169 C2.31534664,6.0028169 2.12499939,6.18539148 2.12499939,6.4056338 L2.12499939,7.83380282 C2.12499939,7.8468944 2.12453039,7.85987902 2.12360791,7.87274153 L2.11983957,14.4243616 C2.15459434,14.6732034 2.36165811,14.8718119 2.55514622,14.9014085 L14.4007281,14.9017841 L14.4007281,13.143662 Z M15.5257274,7.76056338 L17.8749909,7.76056338 L17.8749909,6.4056338 C17.8749909,6.18539148 17.6846436,6.0028169 17.4448441,6.0028169 L15.5257274,6.0028169 L15.5257274,7.76056338 Z M17.8749909,8.85915493 L11.4889649,8.85915493 C9.26102495,8.85915493 9.26102495,12.0450704 11.4889649,12.0450704 L17.8749909,12.0450704 L17.8749909,8.85915493 Z M11.9852882,11.1661972 C11.5741205,11.1661972 11.2408033,10.8464907 11.2408033,10.4521127 C11.2408033,10.0577347 11.5741205,9.73802817 11.9852882,9.73802817 C12.3964558,9.73802817 12.7297731,10.0577347 12.7297731,10.4521127 C12.7297731,10.8464907 12.3964558,11.1661972 11.9852882,11.1661972 Z" id="Combined-Shape"></path>
        </g>
    </g>
</svg>