<?xml version="1.0" encoding="UTF-8"?>
<svg width="20px" height="20px" viewBox="0 0 20 20" version="1.1" xmlns="http://www.w3.org/2000/svg" xmlns:xlink="http://www.w3.org/1999/xlink">
    <g id="Page-1" stroke="none" stroke-width="1" fill="none" fill-rule="evenodd">
        <g id="Artboard-Copy-19" fill="#FFFFFF" fill-rule="nonzero">
            <path d="M10.3050063,11.4228537 L11.2694051,11.4228537 C12.0101653,11.4228537 12.6134078,12.0065065 12.6134078,12.7298287 C12.6134078,12.9723448 12.5455953,13.1991602 12.4275236,13.3935412 C12.7014721,13.6724262 12.8698969,14.0502638 12.8698969,14.4669474 C12.8698969,15.3273245 12.1518203,16.0220822 11.2694051,16.0220822 L10.3050063,16.0220822 L10.3050063,16.4522259 C10.3050063,16.7628836 10.047778,17.0147215 9.73047082,17.0147215 C9.41316363,17.0147215 9.15593533,16.7628836 9.15593533,16.4522259 L9.15593533,16.0220822 L8.70451459,16.0220822 C8.38720741,16.0220822 8.12997911,15.7702444 8.12997911,15.4595867 C8.12997911,15.1489289 8.38720741,14.8970911 8.70451459,14.8970911 L9.15593533,14.8970911 L9.15593533,12.5478449 L8.70451459,12.5478449 C8.38720741,12.5478449 8.12997911,12.296007 8.12997911,11.9853493 C8.12997911,11.6746915 8.38720741,11.4228537 8.70451459,11.4228537 L9.15593533,11.4228537 L9.15593533,10.99271 C9.15593533,10.6820523 9.41316363,10.4302144 9.73047082,10.4302144 C10.047778,10.4302144 10.3050063,10.6820523 10.3050063,10.99271 L10.3050063,11.4228537 Z M10.3050063,12.5478449 L10.3050063,12.9118126 L11.2694051,12.9118126 C11.378575,12.9118126 11.4643368,12.8288358 11.4643368,12.7298287 C11.4643368,12.6308217 11.378575,12.5478449 11.2694051,12.5478449 L10.3050063,12.5478449 Z M10.3050063,14.0368037 L10.3050063,14.8970911 L11.2694051,14.8970911 C11.52023,14.8970911 11.7208259,14.7030093 11.7208259,14.4669474 C11.7208259,14.2308855 11.52023,14.0368037 11.2694051,14.0368037 L10.3050063,14.0368037 Z M8.70451459,7.08832896 C8.38720741,7.08832896 8.12997911,6.83649111 8.12997911,6.52583338 C8.12997911,6.21517565 8.38720741,5.9633378 8.70451459,5.9633378 L11.7823833,5.9633378 C12.0996904,5.9633378 12.3569187,6.21517565 12.3569187,6.52583338 C12.3569187,6.83649111 12.0996904,7.08832896 11.7823833,7.08832896 L8.70451459,7.08832896 Z M9.36700631,2.61161588 C9.05524791,2.55377306 8.85041234,2.25944827 8.90949325,1.95422305 C8.96857417,1.64899783 9.26919882,1.44845477 9.58095722,1.50629759 L13.9412712,2.31529859 C14.2830072,2.37870339 14.4892761,2.72251348 14.3794233,3.04561289 C14.0265904,4.08336569 13.2989189,4.96241127 12.3307117,5.52139824 C12.242293,5.57244614 12.1415198,5.59937008 12.0388723,5.59937008 L8.96100365,5.59937008 C8.80750307,5.59937008 8.66038543,5.53923207 8.55245863,5.43236711 C7.50392012,4.39414458 6.74733664,3.11311985 6.35498273,1.71129331 C6.27112486,1.41168069 6.45122744,1.10224102 6.7572531,1.02014047 C7.06327877,0.938039914 7.37934182,1.11436829 7.46319969,1.41398091 C7.78261911,2.5552225 8.38076588,3.60456685 9.20606434,4.47437892 L11.8757188,4.47437892 C12.3515361,4.17210956 12.7422269,3.76459553 13.017343,3.2888896 L9.36700631,2.61161588 Z M16.7305857,18.7611547 C16.6229875,18.9108961 16.4476848,19 16.2606822,19 L4.7391938,19 C4.55168316,19 4.37597065,18.9104143 4.26846441,18.7600023 C3.43224328,17.5900447 2.98925364,16.1984979 3.00019801,14.7796288 C3.00019801,10.7669894 6.35945801,7.51681823 10.499938,7.51681823 C14.640418,7.51681823 17.999678,10.7669894 17.9996489,14.7739687 C18.0142909,16.1985201 17.5706802,17.5920179 16.7305857,18.7611547 Z M16.850607,14.7796288 C16.850607,11.3913046 14.0088277,8.64180939 10.499938,8.64180939 C6.9910483,8.64180939 4.14926898,11.3913046 4.14925264,14.7838702 C4.14083106,15.8773078 4.45320001,16.9487414 5.04732694,17.8750088 L15.9534264,17.8750088 C16.5495769,16.9501573 16.8618707,15.878097 16.850607,14.7796288 Z" id="Combined-Shape"></path>
        </g>
    </g>
</svg>