<?xml version="1.0" encoding="UTF-8"?>
<svg width="120px" height="50px" viewBox="0 0 120 50" version="1.1" xmlns="http://www.w3.org/2000/svg" xmlns:xlink="http://www.w3.org/1999/xlink">
    <!-- Generator: Sketch 53.2 (72643) - https://sketchapp.com -->
    <title>audi</title>
    <desc>Created with Sketch.</desc>
    <g id="Page-1" stroke="none" stroke-width="1" fill="none" fill-rule="evenodd">
        <g id="Artboard-Copy-36" fill="#FFFFFF" fill-rule="nonzero">
            <g id="audi-14" transform="translate(33.000000, 8.000000)">
                <path d="M46.1714124,33.677156 L46.1714124,26.3992844 L43.1793503,26.3992844 L43.1793503,33.677156 L46.1714124,33.677156 Z M30.3311017,30.655211 L30.3311017,26.5093945 L27.4310169,26.5093945 L27.4310169,29.6785688 C27.4310169,30.5996881 27.3943503,30.8579633 27.3393503,31.0975229 C27.1373729,31.7609908 26.439774,32.0551376 25.7241525,32.0551376 C24.7332203,32.0551376 24.2742655,31.6683486 24.0906215,31.0604037 C24.0356215,30.8582752 24.0172881,30.6371193 23.9989548,30.4159633 C23.9806215,30.1764037 23.9989548,29.9181284 23.9989548,29.6423853 L23.9989548,26.5097064 L21.0622034,26.5097064 L21.0622034,30.6739266 C21.0622034,31.6140734 21.3744915,32.3140367 21.8881356,32.792844 C22.7690678,33.6590642 24.2559322,33.9170275 25.6324859,33.9170275 C27.3026836,33.9170275 28.5875706,33.6774679 29.5051695,32.7747523 C29.9827684,32.3137248 30.3311017,31.7057798 30.3311017,30.655211 L30.3311017,30.655211 Z M16.0879661,30.1392844 C15.9425784,30.1139257 15.7952175,30.1017116 15.6476554,30.102789 L12.3439266,30.102789 C12.1786158,30.102789 11.9949718,30.1211927 11.9033051,30.1392844 C11.9583051,30.0837615 12.0686158,29.9736514 12.1786158,29.8261101 L13.6651695,27.3568991 C13.8671469,27.025633 13.9588136,26.8044771 13.9954802,26.7124587 C14.0321469,26.8044771 14.1238136,27.025633 14.325791,27.3759266 L15.849322,29.8635413 C15.9229661,29.9736514 16.0329661,30.0837615 16.0879661,30.1392844 Z M21.6311582,33.677156 L15.0233898,23.727945 L11.3160169,23.727945 L12.2886158,24.8886239 C12.3069492,24.9070275 12.3439266,24.9251193 12.3802825,24.9441468 C12.3436158,24.9625505 12.3069492,24.9806422 12.2886158,24.9990459 L6.52542373,33.677156 L9.86581921,33.677156 L10.7653955,32.1845872 C10.8020621,32.1109725 10.8203955,32.0370459 10.8203955,32.0005505 C10.8570621,32.0005505 10.9490395,32.0370459 11.0407062,32.0370459 L17.0058757,32.0370459 C17.0975424,32.0370459 17.1708757,32.0186422 17.2075424,32.0005505 C17.2041761,32.0523625 17.2169937,32.1039382 17.244209,32.1480917 L18.180452,33.677156 L21.6311582,33.677156 L21.6311582,33.677156 Z M42.3720621,29.937156 C42.3720621,29.1261468 42.0414407,28.1863119 41.0138418,26.8780917 L38.5357345,23.727633 L35.0850282,23.727633 L37.0488701,25.9385688 C37.3794915,26.3072661 37.8014689,26.6385321 37.8014689,26.6385321 C37.3244915,26.3618532 36.7188701,26.2517431 36.2415819,26.2517431 C35.1036723,26.2517431 33.9468079,26.4913028 32.9195198,27.0627523 C31.8179661,27.6700734 31.0837006,28.6838349 31.0837006,30.0291743 C31.0837006,31.0607156 31.5426554,31.8533211 32.1299435,32.4612661 C33.4518079,33.787578 35.8556497,33.9167156 36.7368927,33.9167156 C38.0398023,33.9167156 40.0772881,33.621945 41.2341525,32.5716881 C41.9134181,31.9450275 42.3720621,31.0794312 42.3720621,29.937156 L42.3720621,29.937156 Z M39.5086441,30.0291743 C39.5086441,30.7846606 39.0127119,31.3554862 38.3887571,31.6686606 C37.8748023,31.9453394 37.2688701,32.0189541 36.7368927,32.0189541 C36.2049153,32.0189541 35.5806497,31.9082202 35.0666949,31.6502569 C34.4427401,31.3370826 33.9651412,30.7291376 33.9651412,30.0656697 C33.9651412,29.2736881 34.5707627,28.6467156 35.2870056,28.3335413 C35.7276271,28.1314128 36.2599153,28.0574862 36.6815819,28.0574862 C37.0858475,28.0574862 37.6731356,28.1123853 38.1320904,28.2970459 C38.9583333,28.6467156 39.5086441,29.3101835 39.5086441,30.0291743 Z M45.2208757,0.00717431193 C43.0718175,0.00369152277 40.9850311,0.731497471 39.3010734,2.07181651 C37.6171637,0.731409862 35.5303459,0.00359294227 33.3812712,0.00717431193 C31.2323319,0.00383599571 29.1456898,0.73162979 27.4617797,2.07181651 C25.7780253,0.731345064 23.6912811,0.00351560836 21.5422881,0.00717431193 C19.3933488,0.00383599571 17.3067068,0.73162979 15.6227966,2.07181651 C13.9389104,0.731586003 11.8522526,0.00378672521 9.70330508,0.00717431193 C4.42983051,0.00717431193 0.156299435,4.29678899 0.156299435,9.59080734 C0.156299435,14.8842018 4.42951977,19.1744404 9.70330508,19.1744404 C11.8522403,19.1777541 13.9388745,18.449963 15.6227966,17.1097982 C17.3066828,18.4500287 19.3933406,19.177828 21.5422881,19.1744404 C23.6912728,19.1780498 25.7780013,18.4502258 27.4617797,17.1097982 C29.1456898,18.4499849 31.2323319,19.1777787 33.3812712,19.1744404 C35.5303417,19.1779971 37.6171518,18.4501829 39.3010734,17.1097982 C40.9849951,18.4501829 43.0718051,19.1779971 45.2208757,19.1744404 C50.4943503,19.1744404 54.7675706,14.8845138 54.7675706,9.59080734 C54.7675706,4.29710092 50.4943503,0.00717431193 45.2208757,0.00717431193 Z M14.0607345,15.5442385 C12.844209,16.4351009 11.3244068,16.978789 9.70330508,16.978789 C5.63516949,16.978789 2.34324859,13.6745505 2.34324859,9.59080734 C2.34324859,5.50706422 5.63516949,2.20251376 9.70330508,2.20251376 C11.3244068,2.20251376 12.8432768,2.74651376 14.0607345,3.63768807 C12.7193698,5.32933956 11.9911041,7.42868898 11.9955932,9.59080734 C11.9966016,11.7520897 12.7242505,13.8497708 14.0607345,15.5442385 L14.0607345,15.5442385 Z M15.6231073,13.9805505 C14.6848975,12.7110383 14.1797891,11.1715212 14.1828531,9.59080734 C14.1789002,8.0099513 14.6840984,6.47016045 15.6231073,5.20106422 C16.5619362,6.47025419 17.0671142,8.00998331 17.0633616,9.59080734 C17.0663147,11.1715035 16.5612175,12.7109864 15.6231073,13.9805505 L15.6231073,13.9805505 Z M25.9000282,15.5442385 C24.6361013,16.4783301 23.1068282,16.9804216 21.5373164,16.9766055 C19.971058,16.979803 18.4452322,16.4776631 17.1848588,15.5442385 C18.5214713,13.849962 19.2491407,11.7523319 19.25,9.59111927 C19.2544892,7.4290009 18.5262234,5.32965148 17.1848588,3.638 C18.4451121,2.70430524 19.970995,2.20203722 21.5373164,2.2053211 C23.170226,2.2053211 24.6788418,2.73559633 25.9000282,3.638 C24.5586636,5.32965148 23.8303978,7.4290009 23.834887,9.59111927 C23.835795,11.7523236 24.5634589,13.8499381 25.9000282,15.5442385 L25.9000282,15.5442385 Z M27.4617797,13.9805505 C26.5235698,12.7110383 26.0184614,11.1715212 26.0215254,9.59080734 C26.0177284,8.0099762 26.5229108,6.47023336 27.4617797,5.20106422 C28.4008393,6.47015291 28.9061409,8.00992658 28.9023446,9.59080734 C28.9053409,11.1715601 28.4001202,12.7110874 27.4617797,13.9805505 L27.4617797,13.9805505 Z M37.7390113,15.5442385 C36.5178249,16.4469541 35.009209,16.9766055 33.3766102,16.9766055 C31.7440113,16.9766055 30.2450282,16.4460183 29.0238418,15.5442385 C30.3605842,13.8500336 31.0882698,11.7523567 31.0889831,9.59111927 C31.0934722,7.4290009 30.3652064,5.32965148 29.0238418,3.638 C30.2450282,2.73590826 31.7440113,2.2053211 33.3766102,2.2053211 C35.009209,2.2053211 36.5178249,2.73559633 37.7390113,3.638 C36.3978004,5.32973651 35.669554,7.42903011 35.6738701,9.59111927 C35.6749484,11.7522946 36.4025934,13.8498546 37.7390113,15.5442385 L37.7390113,15.5442385 Z M39.3013842,13.9805505 C38.3631743,12.7110383 37.858066,11.1715212 37.8611299,9.59080734 C37.8570435,8.00992996 38.3622552,6.47009791 39.3013842,5.20106422 C40.240213,6.47025419 40.745391,8.00998331 40.7416384,9.59080734 C40.7444585,11.1714822 40.2393748,12.7109242 39.3013842,13.9805505 L39.3013842,13.9805505 Z M45.2208757,16.978789 C43.5991525,16.978789 42.079661,16.4351009 40.8634463,15.5442385 C42.1999291,13.8498904 42.9275823,11.752307 42.9285876,9.59111927 C42.9329037,7.42903011 42.2046573,5.32973651 40.8634463,3.638 C42.080904,2.74713761 43.5994633,2.20282569 45.2208757,2.20282569 C49.2883898,2.20282569 52.5809322,5.50737615 52.5809322,9.59111927 C52.5809322,13.6742385 49.2883898,16.978789 45.2208757,16.978789 Z" id="Shape"></path>
            </g>
        </g>
    </g>
</svg>