<?xml version="1.0" encoding="UTF-8"?>
<svg width="120px" height="50px" viewBox="0 0 120 50" version="1.1" xmlns="http://www.w3.org/2000/svg" xmlns:xlink="http://www.w3.org/1999/xlink">
    <!-- Generator: Sketch 53.2 (72643) - https://sketchapp.com -->
    <title>callverso</title>
    <desc>Created with Sketch.</desc>
    <g id="Page-1" stroke="none" stroke-width="1" fill="none" fill-rule="evenodd">
        <g id="Artboard-Copy-37" fill="#FFFFFF" fill-rule="nonzero">
            <path d="M47.8820142,19.6227371 C48.7028089,19.6227371 49.4343445,19.5504447 50.1619993,19.6403217 C51.1322058,19.7634141 51.7919461,20.5527683 51.8268736,21.6605997 C51.9006092,24.034524 51.9141921,26.4104022 51.9588216,28.7862803 C51.9588216,29.2102651 51.7958269,29.7045885 52.496316,29.8237732 C53.1327714,29.9312348 53.2588982,29.5013884 53.4432375,29.0891266 L63.7080214,6.27600708 C64.2028267,5.18185266 65.318564,4.71292934 66.2130944,5.17989882 C67.1076247,5.64686829 67.4064483,6.8484843 66.8708943,7.88988484 C63.2669009,14.8794474 59.6616138,21.8657536 56.0550331,28.8488034 C55.6669506,29.6205731 55.2633447,30.3923427 54.8480964,31.1523892 C54.1204415,32.4829592 52.9076835,32.8737286 51.5086458,32.7897132 C50.1096082,32.7056977 49.0346195,31.9143896 48.5747416,30.6639274 C48.2409906,29.7592962 48.3807003,28.674911 48.322488,27.6686797 C48.1750166,25.2719605 48.0288388,22.8739388 47.8839547,20.4746145 C47.8684314,20.224522 47.8820142,19.9705219 47.8820142,19.6227371 Z M70.1288475,30.6912813 C70.2491531,32.4497438 70.0124227,32.7193747 68.4659137,32.7682208 C67.1464329,32.8112055 65.8230714,33.0026825 64.5074715,32.9440671 C63.1918716,32.8854517 61.8588079,32.8131593 60.6751561,32.3579129 C59.3517946,31.8518665 58.8822146,30.5564658 59.1693957,29.1301574 C59.574942,27.1137871 60.0037733,25.0974169 60.5082806,23.1044927 C60.933231,21.4241842 62.1789761,20.4453067 63.7293659,19.9294911 C65.8250118,19.2319677 67.9982742,19.4214908 70.1327283,19.7204294 C71.0699477,19.8493834 72.3176332,21.310861 72.3001695,22.3698462 C72.2671824,24.2807087 72.0886645,26.2501867 70.5421554,27.5963874 C69.9348062,28.1239261 68.9587785,28.3955109 68.1282818,28.4560801 C66.7098224,28.5243637 65.2882189,28.4792839 63.8768373,28.3212647 C63.0560427,28.2470185 62.9629029,28.7511111 62.9066309,29.2981883 C62.8503589,29.8452655 62.8134911,30.4450966 63.6129412,30.5134812 C64.317311,30.5740505 65.0197405,30.6717428 65.7241103,30.6854198 C67.1638967,30.7108198 68.6114446,30.6912813 70.1288475,30.6912813 Z M65.1516885,26.5452176 C67.2143474,26.5452176 67.8313987,26.0489404 68.2970978,23.9856778 C68.4445691,23.3272313 68.6638358,22.5984463 67.9943934,22.1197538 C67.2900235,21.6195689 65.5261882,21.8032305 64.9906343,22.2643385 C63.8787777,23.2197697 63.9602751,24.622632 63.6323453,25.8633249 C63.5877158,26.0274481 63.9525134,26.412356 64.2008862,26.5159099 C64.4492591,26.6194638 64.8334608,26.5452176 65.1516885,26.5452176 Z M23.9609517,29.6273461 C23.9611594,30.6669658 24.5896648,30.8436814 26.3861208,30.8436814 C26.5470838,30.834231 26.7084921,30.8355364 26.8692836,30.8475891 C27.773516,30.9687276 28.3207124,30.7401275 28.3653419,29.6635577 C28.3963885,28.9328188 28.6641655,28.2098954 28.8271601,27.4830642 C28.9437672,26.9626329 29.0227013,26.6114605 29.0222621,26.3769103 C29.0231765,25.8854002 28.6803546,25.9016774 27.6163425,25.9492942 C27.327221,25.9629712 27.0342187,25.9590635 26.7470376,25.964925 C25.3845064,25.9942405 24.8519419,26.1588095 24.5054031,26.9865908 C24.4467172,27.1264009 24.393472,27.285202 24.3425653,27.4655571 C24.2930251,27.6405516 24.245562,27.8357854 24.1973351,28.0535876 C24.0985504,28.5011962 24.0263863,28.8782726 23.989275,29.1956678 C23.9890785,29.197344 23.988883,29.1990185 23.9886884,29.2006913 C23.970561,29.3569935 23.9609773,29.4987762 23.9609517,29.6273461 L23.9609517,29.6273461 Z M22.5673883,21.8559844 C22.674111,21.1682302 22.7614296,20.570353 22.875914,19.8532911 C25.033653,19.7399679 27.1448222,19.5660755 29.2792763,19.5484909 C30.1117675,19.5506343 30.9329972,19.7423344 31.6815074,20.109245 C33.5035551,21.017784 33.5695291,21.8891998 33.2551822,24.0052163 C32.8670997,26.6487715 32.2015381,29.2552036 31.6019505,31.8635896 C31.5301552,32.1722975 31.1187877,32.6060515 30.8354874,32.6294977 C28.7825306,32.8092516 26.7237526,32.9772825 24.6649746,32.983144 C23.6947682,32.983144 22.7245618,32.6744362 21.7776403,32.3969899 C20.6793666,32.0804666 20.2000846,31.1211277 20.1981442,30.1109887 C20.1981442,28.4912494 20.4678616,26.8812793 21.5564332,25.5643863 C23.0951806,23.7101854 25.1520182,23.6554776 27.2903532,23.9231547 C27.9597956,24.0071701 28.6234168,24.1302625 29.3336079,24.2416318 C29.4526042,23.9270372 29.5498567,23.6045347 29.6246698,23.2764313 C29.7139288,22.7059079 29.6246698,22.2408923 28.8892534,22.1959538 C27.2243791,22.0963076 25.5614453,21.9614921 23.8965711,21.8540306 C23.4813228,21.8325382 23.064134,21.8559844 22.5673883,21.8559844 Z M107.838831,19.9294911 C109.596845,20.5742607 110.210015,21.5726766 109.938357,23.3350467 C109.607997,25.3664998 109.161608,27.3770874 108.601413,29.3568037 C108.034812,31.4298355 106.676523,32.484913 104.153987,32.7721285 C102.814741,32.8929519 101.467655,32.8975277 100.12763,32.7858055 C97.5915104,32.62559 96.5417471,31.24422 96.97834,28.739388 C97.2364149,27.2505564 97.4653836,25.7539095 97.8146579,24.2865703 C98.6238101,20.877107 100.5487,19.8474295 103.707692,19.5191832 C104.191819,19.4937683 104.676933,19.4937683 105.161061,19.5191832 C106.384815,19.5869166 107.277405,19.7236859 107.838831,19.9294911 Z M102.347462,30.6482967 C103.954124,30.6482967 104.466393,30.503712 104.738051,29.5052961 C105.294949,27.447895 105.739304,25.3572785 106.09634,23.2529851 C106.164254,22.8622157 105.756768,22.1451538 105.380328,21.9517229 C103.928899,21.2073071 102.033115,22.1627384 101.654735,23.7629392 C101.276354,25.3631401 100.940663,26.9789717 100.622435,28.5948033 C100.304208,30.2106349 100.678707,30.6482967 102.347462,30.6482967 Z M96.8735577,19.982245 C96.8656794,20.3017516 96.8312789,20.6200353 96.7707158,20.9337685 C96.6174232,21.4710765 96.4486073,21.8559844 95.6666209,21.7856459 C94.4189354,21.6762305 93.1440842,21.7856459 91.8944583,21.8637998 C90.8078271,21.9302306 90.4410891,22.743031 90.2121204,23.6574315 C91.7644507,24.5054012 93.3167809,25.3162477 94.8206009,26.1974328 C95.1436406,26.4161717 95.3561364,26.7656512 95.4027247,27.1548179 C95.4434734,29.9976656 94.1802647,32.5064053 90.5516926,32.8014362 C89.7192555,32.867867 88.8829376,33.0241748 88.0524409,32.996821 C86.9037165,32.9557902 85.7588729,32.7799439 84.5752211,32.6588054 C84.555525,32.4575344 84.5464569,32.2553522 84.5480553,32.0531128 C84.6295526,30.7792044 84.6625397,30.8006967 85.9063443,30.7655275 C87.2646333,30.7284044 88.5996373,30.5935889 89.9462838,30.4939427 C90.854397,30.4275119 91.1629227,29.774927 91.3375598,29.0109727 C91.5199586,28.2138031 90.811708,28.1493261 90.3673534,27.8992337 C89.3835641,27.3365257 88.3706686,26.8285254 87.3791176,26.2814482 C86.0344115,25.5389863 85.8733573,24.9508783 86.2323337,23.4425083 C86.8338616,20.9161839 88.5976969,19.7946756 90.933954,19.5914755 C92.7171934,19.4371216 94.5314794,19.6520448 96.3321825,19.7243371 C96.5048792,19.7321525 96.6736952,19.8845526 96.8735577,19.982245 Z M76.3090624,32.7643131 L72.5679464,32.7643131 C72.5365708,32.6048608 72.5261326,32.4419492 72.5368998,32.279759 C73.1461894,29.4154191 73.769062,26.5549868 74.3783516,23.6828315 C74.5995587,22.6453387 74.7664342,21.592215 75.014807,20.556676 C75.0788406,20.2987682 75.4028896,19.9353526 75.6240966,19.917768 C77.7760145,19.7399679 79.9318132,19.585614 82.0914927,19.5133216 C83.4788878,19.4664293 84.7091096,20.5078299 85.1961532,21.8208152 C85.5315885,22.7679776 85.2805068,23.8252252 84.555817,24.5171242 C84.0959391,24.9723706 83.0034867,24.8160629 82.2001558,24.8453706 C82.0856714,24.8453706 81.848941,24.3744934 81.8431198,24.1146317 C81.7907287,22.0611384 81.5986278,21.8774767 79.5670155,21.8462152 C78.8121949,21.8344921 78.422172,21.9009229 78.2514156,22.8641695 C77.7566104,25.6757556 77.0483597,28.4502186 76.4448913,31.2422662 C76.3702189,31.746519 76.3248653,32.2547337 76.3090624,32.7643131 Z M18.8243319,30.5994505 C18.7079072,31.3809893 18.6186482,31.9827743 18.5158063,32.6861593 C16.1873109,32.881544 13.8588155,33.3602365 11.5555454,32.4028514 C10.4107019,31.9261127 9.76260397,30.4333735 10.0808317,28.8683419 C10.4456293,27.0747102 10.7754995,25.2674016 11.2567219,23.5050314 C11.9785554,20.8477993 13.8103052,19.8259372 16.5462873,19.5406755 C17.7862111,19.4117216 19.068824,19.5563063 20.3126286,19.6559525 C20.5901076,19.6774448 21.0203645,19.9063464 21.0655088,20.224522 C21.1106531,20.5426976 21.3041796,21.7661074 20.2214292,21.8090921 C19.1386788,21.8520767 18.0869751,21.8403536 17.0275096,21.8442613 C16.1155156,21.8442613 15.4751794,22.2350308 15.2694956,23.1592005 C14.8076774,25.26154 14.359442,27.367136 13.9247895,29.4759884 C13.7540332,30.3083273 14.2274939,30.5935889 14.9590296,30.5955428 C16.2144767,30.6033582 17.4679834,30.5994505 18.8243319,30.5994505 Z M37.2504923,15.6427504 C37.9529217,15.6427504 38.5350456,15.5997658 39.1094078,15.6427504 C40.3881399,15.7580274 40.7626395,16.1898276 40.5414325,17.4578744 C40.2018602,19.4214908 39.782731,21.3655688 39.3868868,23.3291852 C38.7827716,26.2990329 38.173482,29.2669267 37.5590179,32.2328667 C37.5260309,32.3911283 37.4658781,32.5415746 37.4057253,32.7389131 L33.672371,32.7389131 L37.2504923,15.6427504 Z M43.5781786,32.7975285 L40.4560543,32.7975285 C40.2988809,32.7975285 40.1417074,32.766267 39.8603476,32.7369593 L43.4481709,15.5724119 C44.224336,15.6212581 44.8840764,15.7013658 45.5535188,15.6974581 C46.5819376,15.6974581 46.8574763,16.3285508 46.7429919,17.1608897 C46.5489506,18.5969673 46.2811737,20.0232758 45.9920521,21.4437226 C45.2643973,25.005586 44.5076363,28.559634 43.7625178,32.1175897 C43.7159479,32.3286052 43.6480334,32.5396207 43.5781786,32.7975285 Z" id="Shape"></path>
        </g>
    </g>
</svg>