<?xml version="1.0" encoding="UTF-8"?>
<svg width="120px" height="50px" viewBox="0 0 120 50" version="1.1" xmlns="http://www.w3.org/2000/svg" xmlns:xlink="http://www.w3.org/1999/xlink">
    <!-- Generator: Sketch 53.2 (72643) - https://sketchapp.com -->
    <title>EY</title>
    <desc>Created with Sketch.</desc>
    <g id="Page-1" stroke="none" stroke-width="1" fill="none" fill-rule="evenodd">
        <g id="Artboard-Copy-32" fill="#FFFFFF" fill-rule="nonzero">
            <g id="ey" transform="translate(23.000000, 0.000000)">
                <polygon id="Path" points="33.7181979 0.0572546125 0.0838780919 12.3740369 33.7181979 6.41889299"></polygon>
                <path d="M32.9275177,27.2923838 C32.9275177,26.6624502 32.5016343,26.3777712 32.2583481,26.2762804 C32.5624558,26.1135498 32.7651943,25.7477048 32.7651943,25.3819926 C32.7651943,24.6299779 32.2583481,24.2031587 31.3662986,24.2031587 L29.460689,24.2031587 L29.460689,28.735572 L31.3664311,28.735572 C32.339576,28.7558967 32.9275177,28.2071292 32.9275177,27.2923838 L32.9275177,27.2923838 Z M31.3664311,27.9834244 L30.291917,27.9834244 L30.291917,26.7029668 L31.3664311,26.7029668 C31.8124558,26.7029668 32.055742,26.9265387 32.055742,27.3533579 C32.055742,27.7395277 31.792182,27.9834244 31.3664311,27.9834244 Z M31.3461572,25.950952 L30.291917,25.950952 L30.291917,24.9753653 L31.3056095,24.9753653 C31.7110866,24.9753653 31.8935512,25.1379631 31.8935512,25.4631587 C31.9138251,25.6867306 31.8124558,25.950952 31.3461572,25.950952 L31.3461572,25.950952 Z M33.5154594,27.3127085 L33.5154594,25.4428339 L34.3264134,25.4428339 L34.3264134,27.2721919 C34.3264134,27.8209594 34.5291519,28.0851808 34.934629,28.0851808 C35.3402385,28.0851808 35.5428445,27.8209594 35.5428445,27.2721919 L35.5428445,25.4428339 L36.3537986,25.4428339 L36.3537986,28.7557638 L35.5428445,28.7557638 L35.5428445,28.4915424 C35.3402385,28.7151144 35.0765459,28.8370627 34.7521643,28.8370627 C33.6776502,28.8168708 33.5154594,27.8818007 33.5154594,27.3127085 L33.5154594,27.3127085 Z M45.9634717,28.7558967 L45.1526502,28.7558967 L45.1526502,25.4429668 L45.9634717,25.4429668 L45.9634717,25.7276458 C46.1662102,25.503941 46.4501767,25.3819926 46.7946996,25.3819926 C47.5853799,25.3819926 48.0111307,25.9105683 48.0111307,26.8860221 L48.0111307,28.7558967 L47.2001767,28.7558967 L47.2001767,26.9265387 C47.2001767,26.3777712 47.017712,26.1135498 46.612235,26.1135498 C46.2066254,26.1135498 45.9837456,26.3982288 45.9837456,26.9265387 L45.9837456,28.7558967 L45.9634717,28.7558967 Z M37.9148852,27.0688118 L37.9148852,28.7557638 L37.1039311,28.7557638 L37.1039311,25.4428339 L37.9148852,25.4428339 L37.9148852,27.0688118 Z M38.6447438,24.4672472 L39.4556979,24.0607528 L39.4556979,28.7557638 L38.6447438,28.7557638 L38.6447438,24.4672472 Z M42.0507509,25.6665387 C41.8480124,25.4632915 41.6047261,25.3615351 41.3208922,25.3615351 C40.5300795,25.3615351 40.0233657,26.0119262 40.0233657,27.0484871 C40.0233657,28.146155 40.5099382,28.8168708 41.3006184,28.8168708 C41.5844523,28.8168708 41.8277385,28.7151144 42.0507509,28.4916753 L42.0507509,28.735572 L42.8617049,28.735572 L42.8617049,24.0405609 L42.0507509,24.4470554 L42.0507509,25.6665387 L42.0507509,25.6665387 Z M41.483083,28.0647232 C41.1992491,28.0647232 40.8545936,27.8818007 40.8545936,27.0484871 C40.8545936,26.2762804 41.1789753,26.1338745 41.4628092,26.1338745 C41.766917,26.1338745 41.9493816,26.316797 42.0508834,26.4590701 L42.0508834,27.7598524 C41.9291078,27.9021255 41.7871908,28.0647232 41.483083,28.0647232 L41.483083,28.0647232 Z M59.8309187,25.3615351 C59.5673587,25.3615351 59.3037986,25.4836162 59.1010601,25.6665387 L59.1010601,24.1420517 L58.290106,24.548679 L58.290106,28.735572 L59.1010601,28.735572 L59.1010601,28.4916753 C59.3037986,28.6949225 59.5673587,28.8168708 59.8511926,28.8168708 C60.6621466,28.8168708 61.1284452,28.1664797 61.1284452,27.0484871 C61.1284452,26.0119262 60.6418728,25.3615351 59.8309187,25.3615351 L59.8309187,25.3615351 Z M59.6888693,26.1135498 C59.992977,26.1135498 60.2972173,26.3574465 60.2972173,27.0282952 C60.2972173,27.719203 60.0944788,28.0443985 59.6888693,28.0443985 C59.3847615,28.0443985 59.1821555,27.8411513 59.1009276,27.7395277 L59.1009276,26.4387454 C59.242977,26.2354982 59.445583,26.1135498 59.6888693,26.1135498 L59.6888693,26.1135498 Z M50.5657686,25.6665387 C50.36303,25.4632915 50.1197438,25.3615351 49.8359099,25.3615351 C49.0452297,25.3615351 48.5383834,26.0119262 48.5383834,27.0484871 C48.5383834,28.146155 49.0249558,28.8168708 49.815636,28.8168708 C50.0996025,28.8168708 50.36303,28.7151144 50.5657686,28.4916753 L50.5657686,28.5729742 C50.5657686,28.9388192 50.5657686,29.4266125 49.5115283,29.4469373 L49.4709806,29.4469373 L49.7548145,30.0973284 L49.7750883,30.0973284 C50.84947,30.0770037 51.3767226,29.5485609 51.3767226,28.4510258 L51.3767226,25.4428339 L50.5657686,25.4428339 L50.5657686,25.6665387 L50.5657686,25.6665387 Z M50.5657686,26.4387454 L50.5657686,27.7395277 C50.4441254,27.9021255 50.2819346,28.0647232 49.9778269,28.0647232 C49.6938604,28.0647232 49.3694788,27.8818007 49.3694788,27.0484871 C49.3694788,26.2762804 49.6938604,26.1338745 49.9778269,26.1338745 C50.2819346,26.1135498 50.4643993,26.2964723 50.5657686,26.4387454 Z M53.9109541,26.2558229 C54.1745141,26.1135498 54.4178004,26.0322509 54.7624558,26.0322509 C55.147659,26.0322509 55.35053,26.1948487 55.35053,26.4997196 L55.35053,26.7234244 C55.1680654,26.6216679 54.8840989,26.5606937 54.6409452,26.5606937 C54.0327297,26.5606937 53.3231449,26.8453727 53.3231449,27.6379041 C53.3231449,28.4915424 53.9923145,28.816738 54.5397085,28.816738 C54.7627208,28.816738 55.1073763,28.7354391 55.3303887,28.4710849 L55.3303887,28.7353063 L56.1413428,28.7353063 L56.1413428,26.4995867 C56.1413428,25.7883542 55.6344965,25.3410775 54.803136,25.3410775 C54.3572438,25.3410775 53.9516343,25.4427011 53.5664311,25.6662731 L53.9109541,26.2558229 L53.9109541,26.2558229 Z M54.1542403,27.6582288 C54.1542403,27.3736827 54.3569788,27.1907601 54.7219081,27.1907601 C54.9651943,27.1907601 55.1679329,27.2314096 55.3706714,27.3533579 L55.3706714,27.8005018 C55.2693021,27.9834244 55.0260159,28.146155 54.7219081,28.146155 C54.3569788,28.146155 54.1542403,27.9630996 54.1542403,27.6582288 L54.1542403,27.6582288 Z M63.7639134,27.7801771 C63.622129,27.9224502 63.419258,28.0648561 63.1151502,28.0648561 C62.9529594,28.0648561 62.4258392,28.0038819 62.3852915,27.3331661 L64.4126767,27.3331661 L64.4126767,27.0892694 C64.4126767,26.0323838 63.8652827,25.3615351 63.0340548,25.3615351 C62.182553,25.3615351 61.5540636,26.0933579 61.5540636,27.0892694 C61.5540636,28.1258303 62.1622792,28.8168708 63.1151502,28.8168708 C63.5409011,28.8168708 63.9666519,28.6541402 64.2707597,28.2882952 L63.7639134,27.7801771 L63.7639134,27.7801771 Z M62.385424,26.7436162 C62.4055654,26.3371218 62.6488516,26.0525756 62.9936396,26.0525756 C63.4193905,26.0525756 63.6018551,26.3982288 63.622129,26.7436162 L62.385424,26.7436162 L62.385424,26.7436162 Z M71.6303004,27.7801771 C71.4883834,27.9224502 71.2856449,28.0648561 70.9815371,28.0648561 C70.8192138,28.0648561 70.2922261,28.0038819 70.2515459,27.3331661 L72.2790636,27.3331661 L72.2790636,27.0892694 C72.2790636,26.0323838 71.7315371,25.3615351 70.9004417,25.3615351 C70.0489399,25.3615351 69.4204505,26.0933579 69.4204505,27.0892694 C69.4204505,28.1258303 70.0286661,28.8168708 70.9815371,28.8168708 C71.407288,28.8168708 71.8330389,28.6541402 72.1574205,28.2882952 L71.6303004,27.7801771 L71.6303004,27.7801771 Z M70.2516784,26.7436162 C70.2718198,26.3371218 70.515106,26.0525756 70.859894,26.0525756 C71.2856449,26.0525756 71.4681095,26.3982288 71.4882509,26.7436162 L70.2516784,26.7436162 Z M68.2849823,27.5972546 C68.2849823,27.8819336 68.3864841,28.0443985 68.6297703,28.0443985 C68.7919611,28.0443985 68.9744258,27.9834244 69.1163428,27.9021255 L69.014841,28.6744649 C68.8323763,28.7760886 68.5890901,28.8370627 68.3256625,28.8370627 C67.6768993,28.8370627 67.4538869,28.2882952 67.4538869,27.8209594 L67.4538869,26.2153063 L66.9673145,26.2153063 L66.9673145,25.4429668 L67.4740283,25.4429668 L67.4740283,24.5893284 L68.2849823,24.1828339 L68.2849823,25.4428339 L69.0351148,25.4428339 L69.0351148,26.2151734 L68.2849823,26.2151734 L68.2849823,27.5972546 Z M66.7037544,28.6744649 C66.5212898,28.7760886 66.2780035,28.8370627 66.0144435,28.8370627 C65.3656802,28.8370627 65.1426678,28.2882952 65.1426678,27.8209594 L65.1426678,26.2153063 L64.6358216,26.2153063 L64.6358216,25.4429668 L65.1426678,25.4429668 L65.1426678,24.5893284 L65.9536219,24.1828339 L65.9536219,25.4428339 L66.6429329,25.4428339 L66.6429329,26.2151734 L65.9536219,26.2151734 L65.9536219,27.6175793 C65.9536219,27.9021255 66.0549912,28.0647232 66.2982774,28.0647232 C66.4606007,28.0647232 66.6430654,28.0037491 66.7849823,27.9224502 L66.7037544,28.6744649 Z M74.7524735,26.3574465 C74.5952919,26.2372081 74.4026545,26.1728501 74.204947,26.174524 C73.79947,26.174524 73.6170053,26.4184207 73.6170053,26.9468635 L73.6170053,28.7354391 L72.8060512,28.7354391 L72.8060512,25.4226421 L73.6170053,25.4226421 L73.6170053,25.7071882 C73.8197438,25.4632915 74.06303,25.3413432 74.346864,25.3413432 C74.5700088,25.3413432 74.8132951,25.4225092 74.9550795,25.5445904 L74.7524735,26.3574465 L74.7524735,26.3574465 Z M37.9148852,24.548679 L37.9148852,24.9551734 L37.1039311,24.9551734 L37.1039311,24.1421845 L37.9148852,24.1421845 L37.9148852,24.548679 Z M43.5915636,25.4428339 L44.4025177,25.4428339 L44.4025177,28.7557638 L43.5915636,28.7557638 L43.5915636,25.4428339 Z M44.4025177,24.548679 L44.4025177,24.9551734 L43.5915636,24.9551734 L43.5915636,24.1421845 L44.4025177,24.1421845 L44.4025177,24.548679 Z M66.8051237,31.458952 C66.6025177,31.2557048 66.3590989,31.1540812 66.075265,31.1540812 C65.2845848,31.1540812 64.7777385,31.8044723 64.7777385,32.8410332 C64.7777385,33.9385683 65.264311,34.6092841 66.0549912,34.6092841 C66.3389576,34.6092841 66.5822438,34.5076605 66.8051237,34.2842214 L66.8051237,34.5281181 L67.6160777,34.5281181 L67.6160777,29.8329742 L66.8051237,30.2396015 L66.8051237,31.458952 L66.8051237,31.458952 Z M66.2373233,33.8572694 C65.9534894,33.8572694 65.6089664,33.6743469 65.6089664,32.8411661 C65.6089664,32.0688266 65.9332155,31.9265535 66.217182,31.9265535 C66.5212898,31.9265535 66.7037544,32.109476 66.8051237,32.2516162 L66.8051237,33.5523985 C66.6834806,33.6743469 66.5414311,33.8572694 66.2373233,33.8572694 L66.2373233,33.8572694 Z M39.1109099,32.1499926 C38.9537881,32.0297369 38.7611861,31.9653752 38.5635159,31.9670701 C38.1580389,31.9670701 37.9755742,32.2109668 37.9755742,32.7392768 L37.9755742,34.5279852 L37.1646201,34.5279852 L37.1646201,31.2150554 L37.9755742,31.2150554 L37.9755742,31.4996015 C38.1781802,31.2557048 38.4214664,31.1337565 38.7054329,31.1337565 C38.9284452,31.1337565 39.1717314,31.2150554 39.3136484,31.3370037 L39.1109099,32.1499926 L39.1109099,32.1499926 Z M32.6840989,31.2150554 L33.495053,31.2150554 L32.5624558,34.5279852 L31.8530035,34.5279852 L31.4880742,33.1459041 C31.4272527,32.9020074 31.3461572,32.6173284 31.3056095,32.4345387 C31.2649293,32.5768118 31.1839664,32.9833063 31.1231449,33.1865535 L30.7582155,34.5281181 L30.0689046,34.5281181 L29.1363074,31.2151882 L29.9674028,31.2151882 L30.2716431,32.4549963 C30.3121908,32.6582435 30.3932862,33.0240886 30.4338339,33.2679852 C30.4743816,33.0240886 30.5757509,32.6582435 30.6365724,32.4346716 L30.9812279,31.2151882 L31.6705389,31.2151882 L32.0151943,32.4346716 C32.0760159,32.6583764 32.1571113,33.0037638 32.2179329,33.2679852 C32.2584806,33.064738 32.3193021,32.7394096 32.4003975,32.4346716 L32.6840989,31.2150554 L32.6840989,31.2150554 Z M35.1576413,31.1540812 C34.2859982,31.1540812 33.6575088,31.8857712 33.6575088,32.8816827 C33.6575088,33.8775941 34.2859982,34.6092841 35.1576413,34.6092841 C36.029417,34.6092841 36.6579064,33.8775941 36.6579064,32.8816827 C36.6579064,31.8655793 36.029417,31.1540812 35.1576413,31.1540812 L35.1576413,31.1540812 Z M35.1576413,33.8370775 C34.7521643,33.8370775 34.4886042,33.4509077 34.4886042,32.8818155 C34.4886042,32.2923985 34.7521643,31.9266863 35.1576413,31.9266863 C35.5632509,31.9266863 35.826811,32.3127232 35.826811,32.8818155 C35.826811,33.4509077 35.5631184,33.8370775 35.1576413,33.8370775 Z M62.7909011,32.1499926 C62.6337793,32.0297369 62.4411773,31.9653752 62.2435071,31.9670701 C61.83803,31.9670701 61.6555654,32.2109668 61.6555654,32.7392768 L61.6555654,34.5279852 L60.8446113,34.5279852 L60.8446113,31.2150554 L61.6555654,31.2150554 L61.6555654,31.4996015 C61.8581714,31.2557048 62.1014576,31.1337565 62.385424,31.1337565 C62.6084364,31.1337565 62.8517226,31.2150554 62.9936396,31.3370037 L62.7909011,32.1499926 L62.7909011,32.1499926 Z M56.384364,31.2150554 L57.195318,31.2150554 L56.2627208,34.5279852 L55.553136,34.5279852 L55.1882067,33.1459041 C55.1273852,32.9020074 55.0462898,32.6173284 55.005742,32.4345387 C54.9651943,32.5768118 54.8840989,32.9833063 54.8232774,33.1865535 L54.4583481,34.5281181 L53.7487633,34.5281181 L53.7487633,34.5077934 L52.8162986,31.2151882 L53.647394,31.2151882 L53.9515018,32.4549963 C53.992182,32.6582435 54.0731449,33.0240886 54.1138251,33.2679852 C54.1543728,33.0240886 54.2556095,32.6582435 54.3164311,32.4346716 L54.6612191,31.2151882 L55.35053,31.2151882 L55.6951855,32.4346716 C55.7560071,32.6583764 55.8371025,33.0037638 55.897924,33.2679852 C55.9384717,33.064738 55.9992933,32.7394096 56.0803887,32.4346716 L56.384364,31.2150554 L56.384364,31.2150554 Z M58.8375,31.1540812 C57.9657244,31.1540812 57.337235,31.8857712 57.337235,32.8816827 C57.337235,33.8775941 57.9657244,34.6092841 58.8375,34.6092841 C59.7092756,34.6092841 60.337765,33.8775941 60.337765,32.8816827 C60.337765,31.8857712 59.7092756,31.1540812 58.8375,31.1540812 Z M58.8375,33.8370775 C58.432023,33.8370775 58.1684629,33.4712325 58.1684629,32.8818155 C58.1684629,32.2923985 58.432023,31.9266863 58.8375,31.9266863 C59.2431095,31.9266863 59.5065371,32.3127232 59.5065371,32.8818155 C59.5065371,33.4509077 59.242977,33.8370775 58.8375,33.8370775 Z M41.5439046,32.3125904 L42.5575972,34.5281181 L41.6655477,34.5281181 L40.9762367,32.9833063 L40.5504859,33.5322066 L40.5504859,34.5281181 L39.7395318,34.5281181 L39.7395318,30.2597934 L40.5504859,29.8532989 L40.5504859,32.4955129 C40.6486147,32.3576085 40.7500129,32.2220718 40.8545936,32.0890185 L41.5033569,31.2353801 L42.4359541,31.2353801 L41.5439046,32.3125904 L41.5439046,32.3125904 Z M45.4160777,34.5281181 L44.6051237,34.5281181 L44.6051237,31.2150554 L45.4160777,31.2150554 L45.4160777,31.4996015 C45.6188163,31.2760295 45.9026502,31.1540812 46.2473057,31.1540812 C47.0379859,31.1540812 47.4637367,31.6826568 47.4637367,32.6581107 L47.4637367,34.5279852 L46.6527827,34.5279852 L46.6527827,32.6986273 C46.6527827,32.1498598 46.470318,31.8856384 46.064841,31.8856384 C45.6592314,31.8856384 45.4363516,32.1703173 45.4363516,32.6986273 L45.4363516,34.5279852 L45.4160777,34.5279852 L45.4160777,34.5281181 Z M50.0183746,31.458952 C49.815636,31.2557048 49.5723498,31.1540812 49.2885159,31.1540812 C48.4977032,31.1540812 47.9909894,31.8044723 47.9909894,32.8410332 C47.9909894,33.9385683 48.4775618,34.6092841 49.268242,34.6092841 C49.552076,34.6092841 49.815636,34.5076605 50.0183746,34.2842214 L50.0183746,34.3653875 C50.0183746,34.7312325 50.0183746,35.2190258 48.9641343,35.2393506 L48.9234541,35.2393506 L49.2074205,35.8897417 L49.2276943,35.8897417 C50.302076,35.869417 50.8293286,35.3408413 50.8293286,34.2433063 L50.8293286,31.2352472 L50.0183746,31.2352472 L50.0183746,31.458952 L50.0183746,31.458952 Z M50.0183746,32.2314244 L50.0183746,33.5322066 C49.8967314,33.6948044 49.7344081,33.8572694 49.4303004,33.8572694 C49.1464664,33.8572694 48.8220848,33.6743469 48.8220848,32.8411661 C48.8220848,32.0688266 49.1464664,31.9265535 49.4303004,31.9265535 C49.7344081,31.9060959 49.9168728,32.0890185 50.0183746,32.2314244 L50.0183746,32.2314244 Z M43.0441696,31.2150554 L43.8551237,31.2150554 L43.8551237,34.5281181 L43.0441696,34.5281181 L43.0441696,31.2150554 Z M43.8551237,30.3410923 L43.8551237,30.7477196 L43.0441696,30.7477196 L43.0441696,29.9347306 L43.8551237,29.9347306 L43.8551237,30.3410923 Z M63.3989841,30.2597934 L64.2099382,29.8532989 L64.2099382,34.5281181 L63.3989841,34.5281181 L63.3989841,30.2597934 L63.3989841,30.2597934 Z M5.47672261,27.8005018 L11.6195671,27.8005018 L11.6195671,24.2233506 L5.47672261,24.2233506 L5.47672261,21.4185387 L12.2886042,21.4185387 L10.0383392,17.4755424 L0.387985866,17.4755424 L0.387985866,34.5281181 L13.9917403,34.5281181 L13.9917403,30.6053137 L5.47672261,30.6053137 L5.47672261,27.8005018 L5.47672261,27.8005018 Z M23.0541519,17.4755424 L20.175265,23.0445166 L17.2962456,17.4755424 L11.639841,17.4755424 L17.5800795,27.8005018 L17.5800795,34.5281181 L22.6688163,34.5281181 L22.6688163,27.8005018 L28.6089223,17.4755424 L23.0541519,17.4755424 L23.0541519,17.4755424 Z" id="Shape"></path>
            </g>
        </g>
    </g>
</svg>