<?xml version="1.0" encoding="UTF-8"?>
<svg width="120px" height="50px" viewBox="0 0 120 50" version="1.1" xmlns="http://www.w3.org/2000/svg" xmlns:xlink="http://www.w3.org/1999/xlink">
    <!-- Generator: Sketch 53.2 (72643) - https://sketchapp.com -->
    <title>ezuza</title>
    <desc>Created with Sketch.</desc>
    <g id="Page-1" stroke="none" stroke-width="1" fill="none" fill-rule="evenodd">
        <g id="Artboard-Copy-34" fill="#FFFFFF" fill-rule="nonzero">
            <path d="M96,25.4374373 L96,26.4679787 C95.9909083,26.5272724 95.9801636,26.5865661 95.9752045,26.6458598 C95.9231341,27.218754 95.892553,27.7941535 95.8156871,28.3637072 C95.5498433,30.4008629 94.8712001,32.3607673 93.8221324,34.1210431 C92.6914596,36.0084204 91.1995996,37.5250032 89.2696865,38.5797631 C87.4596182,39.5685484 85.5181339,39.9994717 83.4658966,39.9994717 C67.8381468,39.994461 52.2106725,39.994461 36.5834737,39.9994717 C35.8080296,40.0065028 35.0335207,39.9433378 34.269231,39.810734 C31.3987437,39.2854418 29.0340836,37.8841059 27.2000463,35.59754 C25.3139386,33.2475047 24.3527014,30.5183238 24.0716862,27.5294197 C23.9413699,26.1349577 23.9888699,24.7293577 24.2130203,23.3471252 C24.5601567,21.1916735 25.2775719,19.1715117 26.503294,17.3701521 C28.8712601,13.8810095 32.1649233,12.0353883 36.3520494,12.0253669 C52.0453694,11.9953024 67.737863,11.9919619 83.42953,12.0153454 C83.8940315,12.0153454 84.3593596,12.0353883 84.8222081,12.073804 C85.9334745,12.1666567 87.0248673,12.4261624 88.0604948,12.8437871 C90.7127821,13.9077334 92.68898,15.7500141 94.0775256,18.2461958 C95.185056,20.2354581 95.7694023,22.3850639 95.9396644,24.6549273 C95.9611538,24.9163207 95.9801636,25.176879 96,25.4374373 Z M60.0317105,14.5916989 C52.2624674,14.5916989 44.4932243,14.5916989 36.7239813,14.5916989 C36.2241714,14.5915272 35.7247379,14.6194075 35.2279887,14.6752112 C33.557554,14.8514279 31.9723123,15.5085341 30.6606656,16.5684343 C29.1836829,17.7543085 28.1612835,19.2775723 27.480235,21.0413515 C26.6256183,23.2560968 26.3851023,25.551014 26.6966986,27.899379 C26.8892993,29.4348728 27.3593966,30.9215612 28.0835911,32.2854434 C28.9770541,33.9515132 30.1953375,35.3060822 31.8434089,36.2405845 C33.3129529,37.0757072 34.9015152,37.414767 36.5752085,37.414767 C52.2090195,37.414767 67.8425549,37.4130967 83.4758148,37.4097562 C83.9504956,37.4085302 84.4246722,37.3784112 84.895768,37.319563 C86.483567,37.1357851 87.9900147,36.5114376 89.2481971,35.515698 C90.7127821,34.3648989 91.737661,32.8792156 92.4335868,31.1555224 C93.3518452,28.8798131 93.6138506,26.5164158 93.3096929,24.0853737 C93.1238163,22.4922085 92.6334267,20.9506952 91.8657709,19.5464818 C90.9268496,17.8486774 89.645751,16.4949435 87.9175076,15.6013622 C86.5124318,14.8748055 85.0114801,14.5883584 83.4444073,14.5883584 L60.0317105,14.5916989 Z M60.0118742,35.6743713 L36.6157078,35.6743713 C35.2759266,35.6743713 33.9940015,35.4288452 32.8021665,34.7858007 C31.3425406,33.9974449 30.2862542,32.8140761 29.5275132,31.3467655 C28.9127124,30.1421149 28.5240325,28.8328339 28.3811366,27.4851582 C28.1596305,25.5485086 28.346423,23.6561206 29.0183798,21.8230263 C29.5861958,20.2730386 30.4573428,18.9318315 31.7599308,17.9054657 C32.8210141,17.0668333 34.0946553,16.5475558 35.4346175,16.4072556 C35.7971285,16.3659343 36.1616339,16.345024 36.5264441,16.3446214 C52.1889076,16.3412809 67.8513711,16.3412809 83.5138345,16.3446214 C85.1577733,16.3446214 86.6785613,16.7454803 88.0282607,17.716728 C89.2878699,18.6228361 90.1689351,19.8371045 90.7764238,21.2601536 C91.5029307,22.9638039 91.7773337,24.7492962 91.6855905,26.5974227 C91.602939,28.2718437 91.2219155,29.8694334 90.4516033,31.3617977 C89.6887298,32.8391297 88.6258312,34.0341903 87.1529811,34.8175354 C86.2066292,35.3193221 85.1625504,35.6044443 84.0948747,35.6526581 C83.755177,35.6710308 83.4154792,35.6760415 83.0749549,35.6760415 L60.0118742,35.6743713 Z M39.3076678,26.864662 L43.5964553,26.864662 C43.8807766,26.8437839 43.9931826,26.735218 43.9997948,26.4471006 C44.0188046,25.6779526 43.9907031,24.9121451 43.8047372,24.1613698 C43.3848674,22.467741 42.4459461,21.201695 40.8218437,20.5335969 C39.5662216,20.0078428 38.1801261,19.8885059 36.8545707,20.1920317 C34.2254257,20.786639 31.7772876,23.5216658 32.3211347,26.9206152 C32.6335574,28.8706267 33.6741401,30.288665 35.4164342,31.1688844 C36.8768866,31.9054626 38.4241231,32.0825086 40.0267361,31.8135991 C41.2772536,31.6039833 42.3798249,31.0619886 43.3691636,30.2727977 C43.7215893,29.9988848 43.9678413,29.6088161 44.0650895,29.1704357 C44.1875056,28.7033529 43.9840877,28.2114359 43.5691803,27.9711996 C43.2013811,27.7407057 42.7872969,27.7899779 42.3922227,28.1115002 C42.3459378,28.1499158 42.302959,28.1950124 42.2566742,28.2309227 C41.9649143,28.4756137 41.6838991,28.7319963 41.3780885,28.96082 C40.1383156,29.8744442 38.7778716,30.1867801 37.2851851,29.7057494 C36.0536774,29.3099012 35.1949281,28.5365776 34.8577099,27.2379618 C34.7833235,26.9515148 34.8510978,26.8629917 35.137072,26.8629917 L39.3076678,26.864662 Z M85.2619142,29.9871857 L85.2619142,30.8757563 C85.2505936,31.3257573 85.5291911,31.7312779 85.9504014,31.8779035 C86.1957359,31.9687654 86.459382,31.9974405 86.718234,31.9614158 C87.4075477,31.8779035 87.7646023,31.3768299 87.7588167,30.812287 C87.7431129,29.2113568 87.7654288,27.6104266 87.7455925,26.0094964 C87.7423797,25.5406484 87.6869294,25.0736568 87.5802894,24.6173468 C86.822375,21.473945 83.8122065,19.5481521 80.6532653,20.1644726 C76.6744211,20.9336206 74.633755,25.544333 76.7322771,29.0518483 C77.7414522,30.737961 79.2415773,31.6925063 81.1814086,31.9371972 C82.372417,32.0875193 83.4353156,31.7977317 84.3312581,30.9784764 C84.6610377,30.6711512 84.9494915,30.3195646 85.2602612,29.9871857 L85.2619142,29.9871857 Z M48.5067823,29.2798368 C48.5547202,29.1888084 48.5811686,29.1261742 48.6175353,29.0693859 C49.2401768,28.0761466 49.8633693,27.0831858 50.4871127,26.0905033 C51.586378,24.3384158 52.6850922,22.5863284 53.7832555,20.834241 C53.8082393,20.7826614 53.8271044,20.7282799 53.8394585,20.6722272 C53.7852547,20.6540186 53.7300633,20.6389618 53.6741554,20.6271306 C53.6293252,20.6233698 53.5842637,20.6233698 53.5394335,20.6271306 L45.2164252,20.6271306 C44.8502789,20.6271306 44.5395092,20.75908 44.3634615,21.0889534 C44.2606449,21.28385 44.1979476,21.4977634 44.1791486,21.7178008 C44.1254251,22.3992609 44.5180198,23.0230976 45.3180865,23.0038898 C46.6611738,22.9704849 48.0067406,22.9947034 49.3514808,22.9947034 C49.3961126,22.9947034 49.4498361,22.9813415 49.4837233,23.0013844 C49.5197076,23.0275801 49.5414355,23.0693238 49.5424058,23.114126 C49.5424058,23.1533767 49.5002536,23.1909573 49.4762846,23.2293729 L46.0049207,28.7345017 C45.4412373,29.6364342 44.8745234,30.5389235 44.3047789,31.4419695 C44.277867,31.4976866 44.25708,31.5562163 44.2427902,31.6165101 C44.3021367,31.6348064 44.3629938,31.6476636 44.4246236,31.6549258 C44.689935,31.6591014 44.9544198,31.6549258 45.2197312,31.6549258 L52.8517728,31.6549258 C53.1718994,31.6721312 53.4797462,31.5283279 53.6741554,31.2707693 C53.8173193,31.0739136 53.8977536,30.8376715 53.9047532,30.5934848 C53.951038,29.9061788 53.5881979,29.2572885 52.7294485,29.2756612 C51.3855348,29.308231 50.0407945,29.2865178 48.6960543,29.288188 C48.6472899,29.2915285 48.5985255,29.2856827 48.5067823,29.2798368 Z M71.5186191,23.0164166 C71.4475388,23.135004 71.4020805,23.2126705 71.3533161,23.2886666 C69.6451846,26.0050424 67.9345736,28.7216965 66.221483,31.438629 C66.1939401,31.4947437 66.1728638,31.5538677 66.1586679,31.6148399 C66.2175862,31.6338797 66.2782128,31.6470264 66.3396747,31.6540906 L74.797405,31.6540906 C75.1015626,31.6540906 75.3652209,31.5572164 75.5503604,31.3200416 C75.8941907,30.874086 75.9057619,30.3738475 75.6950005,29.8752793 C75.501596,29.4201374 75.1164399,29.2781666 74.6453262,29.2831773 C73.3005859,29.2965393 71.9558457,29.2906934 70.6111054,29.2906934 C70.5475172,29.2858547 70.4842986,29.2769287 70.4218334,29.2639695 C70.4739039,29.1737762 70.5086175,29.1086367 70.5482902,29.0460025 C72.2624828,26.313481 73.9763999,23.5809596 75.6900414,20.8484381 C75.71759,20.7920348 75.7386652,20.7326337 75.7528566,20.6713921 C75.6998375,20.649611 75.64429,20.6347377 75.5875535,20.6271306 L67.114946,20.6271306 C66.649725,20.6061292 66.2385233,20.930228 66.1454436,21.3912679 C66.1011588,21.5671075 66.0838759,21.7487785 66.0941997,21.929922 C66.1289133,22.5387264 66.5314262,23.0155815 67.2050362,23.0005493 C68.5646537,22.9754956 69.9242712,22.9921981 71.2838888,22.9938683 C71.351663,22.9938683 71.4169577,23.0063951 71.5186191,23.0172517 L71.5186191,23.0164166 Z M55.0602215,24.7593177 L55.0602215,27.456764 C55.0586788,27.719255 55.0749719,27.9815433 55.1089859,28.2417793 C55.3123086,29.6523015 56.0115405,30.7312801 57.2967717,31.3484357 C58.9084763,32.1217593 60.5788636,32.1610101 62.2509039,31.5630623 C63.9601374,30.9525876 64.9693125,29.4952985 64.9784041,27.6663798 C64.9883223,25.6211643 64.9825367,23.5742786 64.9784041,21.5298982 C64.9932571,21.132187 64.7584895,20.7681711 64.3924049,20.6212847 C64.0248859,20.4457649 63.6001462,20.4396732 63.2278449,20.6045823 C62.8030161,20.786639 62.6211827,21.1290393 62.6220092,21.5908622 C62.6264173,23.5806812 62.6264173,25.5707786 62.6220092,27.5611543 C62.6220092,28.5633016 62.1261001,29.2355753 61.1656894,29.5028146 C60.5053377,29.6792807 59.8137349,29.700422 59.1440332,29.5646137 C57.9488922,29.3391305 57.4157899,28.6660216 57.4157899,27.4375562 L57.4157899,21.6042241 C57.4189502,21.4782603 57.4039148,21.352504 57.371158,21.2309243 C57.2364361,20.7807932 56.9016974,20.5711774 56.4619913,20.5093783 C55.8065647,20.4158446 55.0180692,20.7231697 55.0494768,21.698593 C55.0850169,22.7182778 55.0602215,23.7396329 55.0602215,24.7593177 Z M38.2100556,25.1317824 L35.0759099,25.1317824 C34.8552303,25.1317824 34.8213432,25.1033882 34.8403531,24.8753997 C34.9056478,24.0795278 35.2850182,23.4556912 35.8875478,22.9546175 C36.4603229,22.4836083 37.1347593,22.2639711 37.8596132,22.2030071 C38.553886,22.1420432 39.2415466,22.182129 39.888708,22.4702464 C40.9383824,22.9379151 41.513637,23.7521597 41.5838908,24.9171559 C41.595462,25.1150799 41.571493,25.1326175 41.3714764,25.1326175 L38.2100556,25.1317824 Z M81.6087169,29.6364342 C80.6728968,29.6096585 79.786351,29.2066207 79.1458008,28.5167534 C78.5052507,27.8268861 78.1636728,26.9072447 78.1968621,25.9618944 C78.2795136,23.9575999 79.9201463,22.4167985 81.8451003,22.5103323 C83.8122065,22.6055363 85.3346476,24.2640899 85.2478635,26.2015746 C85.1729669,28.1614601 83.5490039,29.6942605 81.6087169,29.6364342 Z" id="Combined-Shape"></path>
        </g>
    </g>
</svg>