<?xml version="1.0" encoding="UTF-8"?>
<svg width="120px" height="50px" viewBox="0 0 120 50" version="1.1" xmlns="http://www.w3.org/2000/svg" xmlns:xlink="http://www.w3.org/1999/xlink">
    <!-- Generator: Sketch 53.2 (72643) - https://sketchapp.com -->
    <title>medibank</title>
    <desc>Created with Sketch.</desc>
    <g id="Page-1" stroke="none" stroke-width="1" fill="none" fill-rule="evenodd">
        <g id="Artboard-Copy-41" fill="#FFFFFF" fill-rule="nonzero">
            <path d="M23.107719,33.5712456 C22.0950554,33.5712456 21.1112921,33.5618899 20.1275288,33.5712456 C19.6720614,33.5782624 19.7032736,33.2835579 19.7032736,32.9736505 C19.7032736,30.8686188 19.7032736,28.7635871 19.7032736,26.6585555 C19.7032736,25.6177342 19.7125217,24.5757436 19.6894015,23.5349223 C19.6616573,22.3023093 19.1021491,21.8614222 17.9415165,22.2426668 C17.3565761,22.435628 16.804004,22.7841277 16.2999842,23.1501693 C16.1196469,23.2811491 16.0572224,23.6729189 16.0560664,23.946573 C16.0387263,26.8363137 16.0445063,29.7272239 16.0433503,32.6169646 C16.0433503,33.5665677 16.0433503,33.5665677 15.1312595,33.5665677 L12.6215648,33.5665677 L12.6215648,24.4494417 C12.6215648,24.2155492 12.6215648,23.9816568 12.6157848,23.7477644 C12.5626084,22.2777506 11.9059955,21.8041185 10.5199411,22.2450057 C10.3002995,22.3151734 10.093374,22.4227639 9.87951237,22.511643 C9.14775892,22.8157032 8.83910462,23.3021994 8.85182071,24.1664318 C8.91077715,27.0561725 8.85991277,29.9470827 8.88534496,32.8368234 C8.88534496,33.4309101 8.70500762,33.6215325 8.12931533,33.5806013 C7.48079449,33.5338228 6.82764962,33.5724151 6.17566076,33.5735845 C5.33871052,33.5735845 5.33986653,33.5735845 5.33755452,32.7549611 C5.33755452,29.3974356 5.34449057,26.0387406 5.30403027,22.681215 C5.29362619,21.8228299 5.11444485,20.9656142 5,20.0043164 C5.87856655,19.7622378 6.85654984,19.479228 7.84493721,19.2418272 C7.96747412,19.2137601 8.21139194,19.4043824 8.28768851,19.5517346 C8.43103358,19.8265582 8.49230203,20.1446519 8.61830697,20.5434384 C9.65871473,19.6148856 10.8089433,19.1014917 12.1406652,19.140084 C13.5070674,19.1763373 14.6029636,19.7751019 15.4063896,20.9539196 C15.8861332,20.5832001 16.3034523,20.200786 16.7751038,19.9072511 C18.3229993,18.9447838 19.9437234,18.8804634 21.5864116,19.6394443 C22.6337555,20.1224321 23.1343072,21.0427987 23.1493353,22.144432 C23.1990437,25.8621518 23.1805475,29.5810411 23.1863276,33.2999304 C23.1694561,33.3928722 23.1431126,33.4837959 23.107719,33.5712456 Z M66.1493878,32.8064174 C66.1493878,33.6648026 65.5193631,33.6074989 64.8777784,33.5806013 C64.2361936,33.5537037 63.625821,33.574754 62.9368399,33.574754 L62.9368399,13.30096 L66.3956177,13.30096 L66.3956177,19.9668936 C67.0649467,19.664003 67.6209868,19.3108254 68.2267353,19.1564564 C70.6994378,18.5261164 73.1559561,19.6932395 74.1501235,22.0801116 C75.3974568,25.0715955 75.3465924,28.0911465 73.8576533,31.0031069 C72.749041,33.1712896 70.5560927,34.2261443 68.2082392,33.7279535 C67.5215701,33.5712456 66.8903894,33.1432225 66.1493878,32.8064174 Z M71.0115601,26.3322755 L70.8959592,26.3042085 C70.8554989,25.6259205 70.8265987,24.9476325 70.7687983,24.270514 C70.7403945,24.0171093 70.6829797,23.7679019 70.597709,23.5279056 C70.2670905,22.5093041 69.4417004,21.9374372 68.448689,22.0274858 C67.2834323,22.1339068 66.5216226,22.9630554 66.5227786,24.1325174 C66.5227786,25.8539656 66.5227786,27.5754137 66.5227786,29.2968618 C66.5227786,29.4816368 66.5089065,29.7307322 66.6129473,29.8418311 C67.1806582,30.4894467 68.0217584,30.8210975 68.8729441,30.7329612 C69.6405339,30.6663019 70.2485944,30.3107854 70.4335558,29.5634992 C70.6994378,28.5039666 70.8265987,27.4105195 71.0115601,26.3322755 Z M46.8868162,19.9271319 L46.8868162,13.285757 L50.3294099,13.285757 C50.347906,13.5816309 50.3802743,13.8517766 50.3802743,14.1219223 C50.3802743,20.3434604 50.3721822,26.5649985 50.3964584,32.7865366 C50.3964584,33.4542994 50.1895329,33.6589552 49.5687562,33.5852791 C49.2129066,33.5560295 48.8552979,33.5560295 48.4994483,33.5852791 C47.921444,33.6121768 47.3191635,33.6823445 47.3076034,32.8099258 C46.6139982,33.1408836 46.0221218,33.511603 45.377069,33.7221062 C43.0650518,34.4764092 40.4224161,33.3712676 39.3195838,31.0732747 C37.871105,28.0560626 37.9173454,24.9827163 39.5207293,22.0298247 C40.6823354,19.8813979 43.1258678,18.7905267 45.4776417,19.370468 C45.914613,19.476889 46.3249961,19.6990868 46.8868162,19.9271319 Z M46.8082077,26.5170505 C46.8082077,25.5206689 46.8174557,24.5289651 46.8012716,23.5279056 C46.8012716,23.3314359 46.7608113,23.068307 46.6348064,22.9525302 C45.2903683,21.7082226 43.3124376,21.8380329 42.7483054,23.7243752 C42.2385056,25.4259425 42.2304135,27.1625936 42.5529399,28.8852112 C42.8997425,30.7563505 44.7493563,31.4580277 46.313436,30.3879699 C46.6521465,30.1540775 46.8278598,29.8815928 46.8151437,29.4430446 C46.7885555,28.4688827 46.8082077,27.490043 46.8082077,26.5170505 Z M77.7892386,23.5852092 C77.2678787,22.7010959 76.7869791,21.8848114 76.3176396,21.0907467 C76.3523199,21.0100538 76.3569439,20.9539196 76.3858441,20.9363777 C78.6562451,19.5061256 81.0723031,18.6524183 83.7900793,19.1213726 C85.9957438,19.5014477 87.0904839,20.8100758 87.0904839,23.0706459 C87.0904839,25.5347024 87.0234354,27.9975895 87.0280595,30.461646 C87.0280595,31.4521804 87.1436603,32.4427147 87.2222689,33.5478564 C86.297462,33.5478564 85.3032946,33.5911264 84.3195313,33.5104336 C84.1311019,33.4952306 83.9808208,32.9923619 83.7900793,32.6766071 C82.673375,33.7092421 81.3439651,34.0378609 79.85965,33.9068812 C76.9106721,33.6472606 75.7222952,31.7737824 75.9847092,28.983446 C76.1800746,26.9158371 77.3638274,25.5849893 79.4411749,25.1359159 C80.5798434,24.8891594 81.7647522,24.824839 82.932321,24.7640269 C83.4490568,24.7359599 83.609742,24.5652184 83.5611896,24.0892473 C83.5334454,23.8155932 83.5218853,23.5396002 83.4918291,23.2647766 C83.4039725,22.4672035 82.9831853,22.0602307 82.1739793,22.0064354 C80.7613368,21.9105396 79.5671799,22.5315239 78.3915191,23.2086424 C78.2100257,23.3127245 78.0377805,23.4296708 77.7892386,23.5852092 Z M83.4640849,28.7893153 L83.481425,28.7893153 C83.481425,28.429121 83.4606169,28.0665878 83.481425,27.7075629 C83.5114813,27.2982512 83.3658242,27.1041205 82.9485051,27.1567463 C82.4294572,27.2210667 81.9023173,27.2456254 81.3902055,27.3461991 C80.3278335,27.5555328 79.8873943,28.0864686 79.8030056,29.1717294 C79.715149,30.3259884 80.4122222,31.2276437 81.4214177,31.2615581 C82.6548789,31.3013198 83.4571489,30.5598808 83.4606169,29.3623517 C83.4640849,29.1717294 83.4640849,28.9811071 83.4640849,28.7893153 Z M36.7671168,32.0053359 C33.97998,34.6062195 29.3247333,34.6693705 26.8439388,32.1608744 C25.5642373,30.8674493 25.0266933,29.2278636 24.9261205,27.4362477 C24.8024276,25.2353201 25.0058851,23.1232717 26.3977195,21.2673354 C28.7906573,18.0735346 33.7961747,18.7880759 35.3775945,20.8732267 C36.4006621,22.2181081 36.7763649,23.7454255 36.9081499,25.3744861 C36.9520782,25.9241333 36.9081499,26.4819667 36.9578582,27.0304444 C37.0017866,27.5309741 36.792549,27.6362257 36.3428616,27.6327173 C34.0736167,27.6163449 31.8043718,27.6479203 29.5362829,27.6128365 C28.9235983,27.6034808 28.7837213,27.813984 28.8334297,28.3858509 C29.0241711,30.6078288 30.7408439,31.7843076 32.9950607,31.1200531 C33.8262309,30.8744661 34.5961326,30.4183759 35.4770112,30.0137421 C35.857338,30.6078288 36.2989333,31.2919641 36.7671168,32.0053359 Z M30.9986338,24.9698523 L30.9986338,24.9756996 C31.5223057,24.9756996 32.0471336,24.9476325 32.5684935,24.9827163 C33.0678892,25.0178002 33.2620987,24.8271779 33.1950502,24.3289871 C33.1626819,24.0950947 33.167306,23.8612022 33.1268457,23.6343266 C32.904892,22.4110693 32.2020388,21.7550011 31.1223267,21.7538316 C29.7651726,21.7538316 28.5328674,23.3653503 28.8993222,24.6915203 C28.9328464,24.8084665 29.1605801,24.9488019 29.3050812,24.9569882 C29.8680574,24.9873942 30.4345016,24.9698523 30.9986338,24.9698523 Z M92.7676423,33.5712456 C91.6289738,33.5712456 90.6035941,33.5642288 89.5782145,33.5712456 C89.1666754,33.5712456 89.1655194,33.3104556 89.1666754,33.0169206 C89.1666754,31.7850872 89.1666754,30.5532539 89.1666754,29.3214205 C89.1608954,27.0702061 89.1793915,24.8189917 89.1308392,22.5677772 C89.112343,21.7316119 88.9308497,20.8989549 88.8175608,20.0113332 C89.6591351,19.7774408 90.5666019,19.5236675 91.4694446,19.2593691 C91.8567075,19.1424229 92.064789,19.2897751 92.1630498,19.6675114 C92.2497504,19.9902829 92.3549472,20.3083766 92.4786401,20.7141799 C92.7433661,20.5410995 92.9687878,20.4019335 93.1849614,20.2463951 C94.2496453,19.4991088 95.413746,19.0874582 96.7223477,19.1108474 C98.762703,19.1482702 100.104829,20.3902389 100.183438,22.4484921 C100.24933,24.1453815 100.210026,25.839932 100.212338,27.5450077 C100.212338,29.3506571 100.199622,31.1563065 100.221586,32.9607864 C100.221586,33.4379269 100.073617,33.5981432 99.6054332,33.5770929 C98.8297515,33.544348 98.0517577,33.5408396 97.2760759,33.5770929 C96.7986443,33.5981432 96.6633913,33.4227239 96.6668593,32.9561086 C96.6841995,30.492052 96.6795754,28.0279955 96.6668593,25.563939 C96.6668593,24.8213306 96.6472072,24.0763833 96.5859387,23.3419611 C96.5165782,22.5069652 96.1235353,22.1853631 95.2935211,22.2251248 C94.336346,22.2707339 93.5895644,22.7852972 92.9237034,23.4132983 C92.7780463,23.5501253 92.7676423,23.8810831 92.7664863,24.1219923 C92.7560822,26.9895132 92.7664863,29.8523563 92.7664863,32.7245551 L92.7676423,33.5712456 Z M105.868688,13.253012 C105.884872,13.564089 105.910304,13.8120149 105.910304,14.0611103 C105.910304,20.3048682 105.903368,26.5497955 105.92302,32.7935533 C105.92302,33.3923179 105.787767,33.6308882 105.158899,33.5876181 C104.385529,33.5338228 103.606379,33.5653983 102.829541,33.5806013 C102.482739,33.5887875 102.317429,33.4636551 102.337082,33.1034608 C102.344018,32.9549391 102.337082,32.8064174 102.337082,32.6567263 L102.337082,14.1149056 C102.337082,13.2541815 102.337082,13.2541815 103.190216,13.253012 L105.868688,13.253012 Z M115,33.5712456 C113.627818,33.5712456 112.334244,33.5876181 111.041826,33.5525342 C110.869581,33.5525342 110.64994,33.3186418 110.543587,33.1373752 C109.129788,30.7528421 107.722926,28.3636311 106.348432,25.9568782 C106.224794,25.6868701 106.224794,25.375518 106.348432,25.1055099 C107.344911,23.3103856 108.379539,21.5374812 109.41879,19.7692546 C109.523987,19.5903269 109.737849,19.3611123 109.906626,19.3564345 C111.204824,19.3225201 112.503021,19.3377231 113.973464,19.3377231 C113.626662,19.848778 113.370028,20.2440561 113.09721,20.6241313 C112.082234,22.0555529 111.075351,23.4939912 110.032631,24.9043624 C109.755189,25.2785902 109.763281,25.5370414 110.012979,25.9124387 C111.620987,28.3238694 113.208187,30.7493337 114.798855,33.172459 C114.872824,33.3016974 114.939967,33.4348132 115,33.5712456 Z M56.375,17.8072289 C55.0633237,17.8072289 54,16.7310941 54,15.4036145 C54,14.0761348 55.0633237,13 56.375,13 C57.6866763,13 58.75,14.0761348 58.75,15.4036145 C58.75,16.7310941 57.6866763,17.8072289 56.375,17.8072289 Z M51.3425609,24.0302791 C53.0149549,19.899977 55.0655937,18.3677347 57.4944774,19.4335524 C61.1378029,21.032279 56.5322961,31.4240755 58.0067357,31.7591565 C58.9896954,31.9825439 59.9148454,30.8109422 60.7821856,28.2443515 L61.7753156,28.9860212 C60.0841383,33.2927284 57.9010432,34.7687298 55.2260303,33.4140254 C51.2135109,31.3819687 56.46872,22.1244559 55.2260303,21.3552451 C54.3975704,20.8424379 53.4205474,21.8690052 52.2949612,24.4349471 L51.3425609,24.0302791 Z" id="Combined-Shape"></path>
        </g>
    </g>
</svg>