<?xml version="1.0" encoding="UTF-8"?>
<svg width="120px" height="50px" viewBox="0 0 120 50" version="1.1" xmlns="http://www.w3.org/2000/svg" xmlns:xlink="http://www.w3.org/1999/xlink">
    <!-- Generator: Sketch 53.2 (72643) - https://sketchapp.com -->
    <title>sber</title>
    <desc>Created with Sketch.</desc>
    <g id="Page-1" stroke="none" stroke-width="1" fill="none" fill-rule="evenodd">
        <g id="Artboard-Copy-33" fill="#FFFFFF">
            <g id="Group-42" transform="translate(5.000000, 15.000000)">
                <g id="sberbank-seeklogo.com" transform="translate(29.310345, 2.950413)" fill-rule="nonzero">
                    <path d="M2.61206897,6.28090909 C1.40517241,5.82446281 0,5.16322314 0,3.19512397 C0,1.36933884 1.25172414,0 4.22241379,0 C5.94655172,0 6.86551724,0.393966942 7.17758621,0.520661157 C7.14655172,1.26 7.14655172,1.92123967 7.17758621,2.66231405 L6.56896552,2.66231405 L6.38103448,2.12603306 C6.1,1.32421488 5.6137931,0.725454545 4.34827586,0.725454545 C2.70517241,0.725454545 2.18965517,1.51338843 2.18965517,2.46099174 C2.18965517,3.46760331 2.67413793,3.83033058 3.74137931,4.23991736 L5.24310345,4.80570248 C6.86551724,5.41487603 7.71551724,6.31214876 7.71551724,8.04421488 C7.71551724,9.68082645 6.62068966,11.4441322 3.3362069,11.4441322 C1.61206897,11.4441322 0.45862069,11.0657851 0.146551724,10.9390909 C0.177586207,10.1997521 0.177586207,9.30247934 0.146551724,8.5631405 L0.836206897,8.5631405 L1.02413793,9.33371901 C1.24310345,10.1528926 1.77413793,10.7221488 3.26551724,10.7221488 C4.65689655,10.7221488 5.4862069,10.0279339 5.4862069,8.78702479 C5.4862069,7.8585124 5.04827586,7.19727273 4.09482759,6.83454545 L2.61206897,6.28090909 Z M12.9948276,0.206528926 C15.1689655,0.206528926 17.0758621,0.458181818 17.0758621,2.72479339 C17.0758621,4.26768595 16.0413793,4.92892562 14.8568966,5.16495868 C16.2793103,5.25867769 17.4672414,6.25140496 17.4672414,7.90363636 C17.4672414,10.6110744 15.6534483,11.2254545 12.9172414,11.2254545 L8.77931034,11.2254545 L8.77931034,10.8783471 C9.32758621,10.7516529 9.40517241,10.5954545 9.40517241,9.99669421 L9.40517241,1.43181818 C9.40517241,0.834793388 9.32758621,0.676859504 8.77931034,0.550165289 L8.77931034,0.203057851 L12.9948276,0.206528926 Z M11.7448276,4.84909091 L12.7793103,4.84909091 C14.0465517,4.84909091 14.7034483,4.39264463 14.7034483,2.91396694 C14.7034483,1.43528926 14.0775862,0.899008264 12.8741379,0.899008264 L12.4206897,0.899008264 C11.8413793,0.899008264 11.7482759,1.07256198 11.7482759,1.5446281 L11.7448276,4.84909091 Z M11.7448276,5.54330579 L11.7448276,9.61661157 C11.7448276,10.3264463 11.8844828,10.5295041 12.6672414,10.5295041 L13.0896552,10.5295041 C14.3551724,10.5295041 15.0586207,9.72768595 15.0586207,8.01123967 C15.0586207,6.35900826 14.45,5.53983471 12.7137931,5.53983471 L11.7448276,5.54330579 Z M22.4086207,0.900743802 C21.937931,0.900743802 21.862069,1.02570248 21.862069,1.40404959 L21.862069,4.8161157 L23.3155172,4.8161157 C23.9241379,4.8161157 24.8775862,4.75363636 25.2551724,4.48636364 L25.2551724,5.87479339 C24.8775862,5.60752066 23.9241379,5.54330579 23.3155172,5.54330579 L21.862069,5.54330579 L21.862069,9.64958678 C21.862069,10.3090909 22.1275862,10.5295041 23.5655172,10.5295041 L23.8793103,10.5295041 C25.3,10.5295041 25.6775862,10.4357851 25.9896552,9.06644628 L26.0827586,8.6568595 L26.7724138,8.6568595 C26.7413793,9.50727273 26.7413793,10.3733058 26.7724138,11.223719 L18.8896552,11.223719 L18.8896552,10.8766116 C19.437931,10.7499174 19.5155172,10.593719 19.5155172,9.99495868 L19.5155172,1.43181818 C19.5155172,0.834793388 19.437931,0.676859504 18.8896552,0.550165289 L18.8896552,0.203057851 L26.5206897,0.203057851 C26.4896552,1.00487603 26.4896552,1.79280992 26.5206897,2.5946281 L25.9275862,2.5946281 L25.7862069,2.13818182 C25.4413793,1.00487603 25.05,0.89553719 23.6293103,0.89553719 L22.4086207,0.900743802 Z M37.45,11.2271901 L34.4482759,11.2271901 C34.2603448,10.6440496 33.4137931,8.42429752 33.1034483,7.63809917 L32.5086207,6.15942149 L31.2275862,6.15942149 L31.2275862,9.99495868 C31.2275862,10.593719 31.3068966,10.7499174 31.8534483,10.8766116 L31.8534483,11.223719 L28.2568966,11.223719 L28.2568966,10.8766116 C28.8051724,10.7499174 28.8810345,10.593719 28.8810345,9.99495868 L28.8810345,1.43181818 C28.8810345,0.834793388 28.8051724,0.676859504 28.2568966,0.550165289 L28.2568966,0.203057851 L32.6189655,0.203057851 C34.9637931,0.203057851 36.5844828,0.768842975 36.5844828,3.09966942 C36.5844828,4.70504132 35.662069,5.46 34.662069,5.82272727 C34.8655172,6.23057851 36.5586207,9.89950413 37.4431034,11.2219835 L37.45,11.2271901 Z M32.2275862,5.46520661 C33.7465517,5.46520661 34.1827586,4.67900826 34.1827586,3.16735537 C34.1827586,1.57760331 33.4810345,0.900743802 32.4465517,0.900743802 L31.9155172,0.900743802 C31.4465517,0.900743802 31.2258621,0.978842975 31.2258621,1.4977686 L31.2258621,5.46520661 L32.2275862,5.46520661 Z M42.6896552,0.208264463 C44.8637931,0.208264463 46.7706897,0.459917355 46.7706897,2.72652893 C46.7706897,4.26942149 45.7362069,4.93066116 44.55,5.16669421 C45.9724138,5.26041322 47.162069,6.2531405 47.162069,7.9053719 C47.162069,10.6128099 45.3482759,11.2271901 42.6103448,11.2271901 L38.4724138,11.2271901 L38.4724138,10.8800826 C39.0189655,10.7533884 39.0982759,10.5971901 39.0982759,9.99842975 L39.0982759,1.43181818 C39.0982759,0.834793388 39.0189655,0.676859504 38.4724138,0.550165289 L38.4724138,0.203057851 L42.6896552,0.208264463 Z M41.437931,4.85082645 L42.4724138,4.85082645 C43.7362069,4.85082645 44.3931034,4.39438017 44.3931034,2.91570248 C44.3931034,1.43702479 43.7689655,0.900743802 42.5637931,0.900743802 L42.1103448,0.900743802 C41.5327586,0.900743802 41.437931,1.07429752 41.437931,1.54636364 L41.437931,4.85082645 Z M41.437931,5.54504132 L41.437931,9.61661157 C41.437931,10.3264463 41.5793103,10.5295041 42.3603448,10.5295041 L42.7827586,10.5295041 C44.05,10.5295041 44.7534483,9.72768595 44.7534483,8.01123967 C44.7534483,6.35900826 44.1431034,5.53983471 42.4068966,5.53983471 L41.437931,5.54504132 Z M55.1982759,11.223719 C55.1051724,10.6249587 54.762069,9.52289256 54.4637931,8.64123967 L53.9948276,7.24066116 L50.5241379,7.24066116 C50.1637931,8.34272727 49.8982759,9.24 49.7568966,9.87 C49.6155172,10.5 49.537931,10.9703306 49.5224138,11.223719 L47.5431034,11.223719 C47.8103448,10.7985124 48.3103448,9.82140496 49.0603448,7.98 L51.0775862,2.97471074 C51.5310345,1.85702479 51.6103448,1.51165289 51.6103448,1.19578512 C51.6103448,0.975371901 51.5465517,0.675123967 50.9844828,0.550165289 L50.9844828,0.203057851 L54.1103448,0.203057851 C54.1785187,0.763378025 54.3151856,1.31307675 54.5172414,1.83966942 L56.8172414,8.43471074 C57.1366788,9.39260782 57.5286329,10.3244315 57.9896552,11.2219835 L55.1982759,11.223719 Z M53.7603448,6.50652893 L52.2896552,2.06702479 L50.7741379,6.50652893 L53.7603448,6.50652893 Z M60.5465517,2.19371901 L60.5465517,10.0036364 C60.5465517,10.6023967 60.7034483,10.758595 61.3293103,10.8852893 L61.3293103,11.2323967 L58.6706897,11.2323967 L58.6706897,10.8852893 C59.2965517,10.758595 59.4517241,10.6023967 59.4517241,10.0036364 L59.4517241,1.43181818 C59.4517241,0.834793388 59.2793103,0.63 58.6706897,0.550165289 L58.6706897,0.203057851 L62.0017241,0.203057851 C62.2362069,0.612644628 62.6586207,1.28950413 63.6586207,2.72132231 L66.9586207,7.30140496 L66.9586207,1.43181818 C66.9586207,0.834793388 66.8017241,0.676859504 66.1758621,0.550165289 L66.1758621,0.203057851 L68.8344828,0.203057851 L68.8344828,0.550165289 C68.2086207,0.676859504 68.0534483,0.834793388 68.0534483,1.43181818 L68.0534483,11.3018182 L67.0189655,11.3018182 L60.5465517,2.19371901 Z M70.962069,1.43702479 C70.962069,0.84 70.8827586,0.682066116 70.3362069,0.555371901 L70.3362069,0.208264463 L73.9327586,0.208264463 L73.9327586,0.555371901 C73.3844828,0.682066116 73.3068966,0.84 73.3068966,1.43702479 L73.3068966,9.99495868 C73.3068966,10.593719 73.3844828,10.7499174 73.9327586,10.8766116 L73.9327586,11.223719 L70.3362069,11.223719 L70.3362069,10.8766116 C70.8827586,10.7499174 70.962069,10.593719 70.962069,9.99495868 L70.962069,1.43702479 Z M76.7775862,6.39545455 C77.5448276,7.48190083 79.3275862,9.90644628 80.6241379,11.2289256 L76.95,11.2289256 C76.4541406,10.0828167 75.8520518,8.98631311 75.1517241,7.95396694 L73.4948276,5.45132231 L74.9327586,3.57867769 C75.7948276,2.46099174 76.9034483,0.964958678 77.2,0.21 L79.7655172,0.21 L79.7655172,0.225619835 C78.7310345,0.824380165 76.9965517,2.58595041 76.4896552,3.13785124 L75.3482759,4.36487603 L76.7775862,6.39545455 Z" id="Shape"></path>
                    <rect id="Rectangle" x="0.136206897" y="13.9780165" width="80.487931" height="1.10206612"></rect>
                </g>
                <path d="M17.4592766,1.36781609 L18.392215,2.22605364 L6.61053569,9.03831418 L0.906283701,5.71264368 L1.43939136,4.63984674 L6.61053569,7.61685824 L17.4592766,1.36781609 Z M15.0869475,0 L16.3397505,0.643678161 L6.61053569,6.27586207 L2.07912056,3.6743295 L2.85212667,2.73563218 L6.61053569,4.90804598 L15.0869475,0 Z M19.2185319,3.11111111 L19.9115719,4.04980843 L6.61053569,11.7471264 L0.186588356,8.04597701 L0.47979757,6.86590038 L6.61053569,10.4061303 L19.2185319,3.11111111 Z M21.1377195,6.57088123 C21.5284874,7.67961686 21.7241379,8.84145594 21.7241379,10.0574713 C21.7241379,11.2734866 21.5284874,12.4535632 21.1377195,13.5977011 L20.8711657,14.3218391 C20.3244623,15.6212507 19.5375197,16.8044005 18.5521473,17.8084291 C17.557833,18.7975389 16.3806079,19.5811258 15.0869475,20.1149425 C13.7189933,20.7049808 12.306258,21 10.8487416,21 C9.37363271,21 7.9608974,20.7049808 6.61053569,20.1149425 C5.34866985,19.5785441 4.20248838,18.8098851 3.17199127,17.8084291 C2.15908671,16.789272 1.3860806,15.627433 0.852972934,14.3218391 C0.289478447,12.9716486 -0.00051023071,11.521873 6.73911402e-07,10.0574713 L6.73911402e-07,9.33333333 L6.61053569,13.1149425 L20.5513011,5.06896552 L21.1377195,6.57088123 Z" id="Combined-Shape"></path>
            </g>
        </g>
    </g>
</svg>