<?xml version="1.0" encoding="UTF-8"?>
<svg width="120px" height="50px" viewBox="0 0 120 50" version="1.1" xmlns="http://www.w3.org/2000/svg" xmlns:xlink="http://www.w3.org/1999/xlink">
    <!-- Generator: Sketch 53.2 (72643) - https://sketchapp.com -->
    <title>W1</title>
    <desc>Created with Sketch.</desc>
    <g id="Page-1" stroke="none" stroke-width="1" fill="none" fill-rule="evenodd">
        <g id="Artboard" fill="#FFFFFF">
            <g id="w1" transform="translate(39.000000, 7.000000)">
                <path d="M5.94783505,35.7456867 L4.64612371,35.7456867 L3.87915464,32.9097831 C3.78938144,32.5681446 3.73958763,32.1624578 3.73958763,32.1624578 L3.72443299,32.1624578 C3.72443299,32.1624578 3.67074227,32.5681446 3.57072165,32.9097831 L2.81125773,35.7456867 L1.51127835,35.7456867 L0.0626391753,30.766988 L1.32538144,30.766988 L2.03534021,33.8165783 C2.11602062,34.1865542 2.16696907,34.6266506 2.16696907,34.6266506 L2.18039175,34.6266506 C2.18039175,34.6266506 2.25731959,34.1865542 2.35272165,33.8165783 L3.15115464,30.766988 L4.3037732,30.766988 L5.10523711,33.8165783 C5.19717526,34.1865542 5.27626804,34.6266506 5.27626804,34.6266506 L5.29156701,34.6266506 C5.29156701,34.6266506 5.33789691,34.1865542 5.41684536,33.8165783 L6.13070103,30.766988 L7.39402062,30.766988 L5.94783505,35.7456867 Z M10.557732,33.342506 C9.62983505,33.3906506 8.82057732,33.4737831 8.82057732,34.2222651 C8.82057732,34.6912771 9.19381443,34.958747 9.84329897,34.958747 C10.1104536,34.958747 10.4261031,34.913494 10.557732,34.8598554 L10.557732,33.342506 Z M9.88053608,35.8554217 C8.38628866,35.8554217 7.6396701,35.2648193 7.6396701,34.2488675 C7.6396701,32.8911325 9.04818557,32.6240964 10.557732,32.5409639 L10.557732,32.2824578 C10.557732,31.7642892 10.1973402,31.5708434 9.62362887,31.5708434 C9.15484536,31.5708434 8.58676289,31.7190361 8.23272165,31.8666506 L7.91707216,31.0163855 C8.3343299,30.8404337 9.04298969,30.6549398 9.76204124,30.6549398 C11.0382062,30.6549398 11.7425361,31.1550361 11.7425361,32.4300723 L11.7425361,35.4951325 C11.3759381,35.6897349 10.6254227,35.8554217 9.88053608,35.8554217 Z M12.6929485,35.7456867 L12.6929485,28.4950843 L13.9455876,28.4950843 L13.9455876,35.7456867 L12.6929485,35.7456867 Z M14.9964536,35.7456867 L14.9964536,28.4950843 L16.2529897,28.4950843 L16.2529897,35.7456867 L14.9964536,35.7456867 Z M19.3122062,31.5708434 C18.6565155,31.5708434 18.1979794,32.0511325 18.1787835,32.9827952 L20.2660825,32.6965301 C20.2660825,31.9480482 19.8909691,31.5708434 19.3122062,31.5708434 Z M21.4592577,33.342506 L18.2594639,33.7781205 C18.3724742,34.5067952 18.9072165,34.8699759 19.6363711,34.8699759 C20.1350309,34.8699759 20.6674639,34.7386988 21.0181856,34.5547952 L21.3791546,35.4951325 C20.9646392,35.7060723 20.2660825,35.8554217 19.544866,35.8554217 C17.904268,35.8554217 17.0351134,34.7851084 17.0351134,33.2508434 C17.0351134,31.7264096 17.8935876,30.6549398 19.3420825,30.6549398 C20.7132165,30.6549398 21.4813402,31.5611566 21.4813402,32.9194699 C21.4813402,33.0579759 21.4813402,33.1966265 21.4592577,33.342506 Z M23.9141649,35.8181205 C22.9563918,35.8181205 22.5040619,35.2925783 22.5040619,34.2488675 L22.5040619,31.7093494 L21.869299,31.7093494 L21.869299,30.766988 L22.5040619,30.766988 L22.5040619,29.6592289 L23.7328866,29.2995181 L23.7328866,30.766988 L24.6691546,30.766988 L24.6691546,31.7093494 L23.7328866,31.7093494 L23.7328866,34.1655904 C23.7328866,34.5724337 23.9847423,34.7110843 24.3100619,34.7110843 C24.4405361,34.7110843 24.5861649,34.6742169 24.6691546,34.6380723 L24.6691546,35.6812048 C24.5194845,35.7524819 24.2179794,35.8181205 23.9141649,35.8181205 Z" id="Combined-Shape"></path>
                <path d="M29.5570309,31.6448675 C28.8922474,31.6448675 28.5607216,32.2463133 28.5607216,33.2407229 C28.5607216,34.2403373 28.8922474,34.8303614 29.5570309,34.8303614 C30.2234021,34.8303614 30.5547835,34.2403373 30.5547835,33.2407229 C30.5547835,32.2463133 30.2234021,31.6448675 29.5570309,31.6448675 Z M29.5570309,35.8554217 C28.1083918,35.8554217 27.3059175,34.7386988 27.3059175,33.2508434 C27.3059175,31.7642892 28.1083918,30.6549398 29.5570309,30.6549398 C31.0049485,30.6549398 31.8052577,31.7642892 31.8052577,33.2508434 C31.8052577,34.7386988 31.0049485,35.8554217 29.5570309,35.8554217 Z M35.4482887,35.7456867 L35.4482887,32.4667952 C35.4482887,31.9666988 35.1444742,31.662506 34.5717732,31.662506 C34.2792165,31.662506 33.9883918,31.7190361 33.8224124,31.7835181 L33.8224124,35.7456867 L32.5703505,35.7456867 L32.5703505,31.0163855 C33.0967216,30.8037108 33.7320619,30.6549398 34.552,30.6549398 C36.0287835,30.6549398 36.7104536,31.266506 36.7104536,32.3356627 L36.7104536,35.7456867 L35.4482887,35.7456867 Z M39.7537938,31.5708434 C39.0992577,31.5708434 38.6366804,32.0511325 38.6174845,32.9827952 L40.7024742,32.6965301 C40.7024742,31.9480482 40.3321237,31.5708434 39.7537938,31.5708434 Z M41.8975258,33.342506 L38.6994639,33.7781205 C38.8129072,34.5067952 39.3437526,34.8699759 40.0733402,34.8699759 C40.573732,34.8699759 41.1051546,34.7386988 41.455299,34.5547952 L41.818433,35.4951325 C41.4039175,35.7060723 40.7024742,35.8554217 39.983567,35.8554217 C38.344701,35.8554217 37.476268,34.7851084 37.476268,33.2508434 C37.476268,31.7264096 38.3334433,30.6549398 39.7803505,30.6549398 C41.1542268,30.6549398 41.9183093,31.5611566 41.9183093,32.9194699 C41.9183093,33.0579759 41.9183093,33.1966265 41.8975258,33.342506 Z" id="Combined-Shape" opacity="0.5"></path>
                <g id="Group-12">
                    <path d="M33.9282392,12.4167818 C33.806957,12.5913872 33.6683126,12.7579608 33.5123918,12.9138795 L23.4256082,23.0173012 C22.0940206,24.3523373 19.9813196,24.4259277 18.7377732,23.1769157 C18.4159175,22.8532048 18.1826804,22.4657349 18.0330103,22.0551325 C17.8449485,21.6183614 17.7336701,21.135759 17.7336701,20.6238072 L17.7336701,10.9779759 L5.70997938,23.0173012 C4.80301031,23.9297349 3.53131959,24.2381205 2.41824742,23.953012 L2.40684536,23.9496867 C1.89750515,23.8143614 1.41746392,23.5682892 1.02387629,23.1769157 C0.837979381,22.9891084 0.691195876,22.7809157 0.567649485,22.5607229 C0.20956701,22.006988 -3.37507799e-13,21.3412048 -3.37507799e-13,20.6238072 L-3.37507799e-13,3.45195181 C-3.37507799e-13,1.56303614 1.43781443,0.0174939759 3.20369072,0.0174939759 C4.96451546,0.0174939759 6.40810309,1.56303614 6.40810309,3.45195181 L6.40810309,13.2504578 L18.4023505,1.23151807 C18.5735258,1.05961446 18.7558144,0.911855422 18.9506598,0.781156627 C19.4996907,0.311710843 20.1841031,0.0174939759 20.9357732,0.0174939759 C22.6989072,0.0174939759 24.1383093,1.56303614 24.1383093,3.45195181 L24.1383093,13.226747 L28.9810103,8.37686747 C29.0347445,8.32308161 29.0897412,8.27134336 29.145893,8.22165678 C28.2152248,9.54555099 28.2835806,11.3312867 29.3852784,12.4370602 C30.5885035,13.6406837 32.5902188,13.6154832 33.9282392,12.4167818 Z" id="Combined-Shape"></path>
                </g>
                <path d="M41.5958763,3.45412048 C41.6365773,2.58925301 41.3440206,1.73045783 40.711567,1.09518072 C40.0514021,0.432144578 39.1455876,0.145301205 38.2425155,0.21773494 C37.8584536,0.237542169 37.4908454,0.332096386 37.1548454,0.485927711 C36.7414845,0.660722892 36.358,0.917493976 36.0214227,1.2546506 L29.5512577,7.73942169 C28.2146186,9.07836145 28.1428866,11.1900723 29.3852784,12.4370602 C30.633299,13.685494 32.7403711,13.6119036 34.0748454,12.2780241 L35.1952784,11.1556627 L35.1952784,20.818988 C35.1952784,22.7084819 36.6387216,24.2540241 38.3972371,24.2540241 C40.1574845,24.2540241 41.5958763,22.7084819 41.5958763,20.818988 L41.5958763,3.64987952 C41.5958763,3.58308434 41.5958763,3.51744578 41.5958763,3.45412048" id="Fill-13" opacity="0.5"></path>
            </g>
        </g>
    </g>
</svg>