<?xml version="1.0" encoding="UTF-8"?>
<svg width="170px" height="50px" viewBox="0 0 170 50" version="1.1" xmlns="http://www.w3.org/2000/svg" xmlns:xlink="http://www.w3.org/1999/xlink">
    <!-- Generator: Sketch 53.2 (72643) - https://sketchapp.com -->
    <title>white_logo</title>
    <desc>Created with Sketch.</desc>
    <g id="Page-1" stroke="none" stroke-width="1" fill="none" fill-rule="evenodd">
        <g id="Artboard">
            <rect fill="#888888" x="0" y="0" width="170" height="50"></rect>
            <g id="azoft-logo" transform="translate(0.000000, 5.000000)" fill="#FFFFFF">
                <path d="M10.1911007,11.0381102 L10.2383111,10.1269291 C10.2791845,9.8384252 10.3748726,9.60409449 10.5225238,9.43748031 C10.6758782,9.27338583 10.9005235,9.15055118 11.1961427,9.08850394 C11.4898609,9.02015748 11.8887726,8.98645669 12.3957294,8.98645669 C12.9026863,8.98645669 13.3054002,9.02015748 13.6051384,9.08850394 C13.9124811,9.15055118 14.1450475,9.27653543 14.2888965,9.45952756 C14.4409836,9.63622047 14.5379391,9.87811024 14.6003582,10.176378 L14.6868577,11.0381102 L10.1911007,11.0381102 L10.1911007,11.0381102 Z M34.9572117,16.3080315 L35.0966249,15.8598425 C35.3168343,14.9867717 35.4302659,13.6365354 35.4302659,11.8009449 C35.4302659,8.85165354 35.1374983,7.13574803 34.5925196,6.63149606 C34.0158562,6.16755906 32.0330211,5.94362205 28.6563714,5.94362205 C26.9526794,5.94362205 25.602273,6.00346457 24.607687,6.11653543 L24.5607935,6.12188976 L24.607687,6.46204724 C24.7667447,7.93228346 24.8446894,9.7096063 24.8446894,11.8009449 C24.8446894,13.1933858 24.8082518,14.4469291 24.74108,15.5625197 L24.6897507,16.1470866 L25.7892134,16.0809449 C26.7438766,16.039685 27.7882077,16.0179528 28.9142857,16.0179528 C31.1477476,16.0179528 33.052955,16.1026772 34.622937,16.2651969 L34.9572117,16.3080315 L34.9572117,16.3080315 Z M10.0938284,17.5609449 L10.1052349,14.0031496 L14.6003582,14.0031496 L14.552831,17.5609449 L18.4487946,17.5609449 L18.4487946,9.89385827 C18.4487946,9.0976378 18.3651467,8.44629921 18.2057721,7.94047244 C18.0451302,7.44 17.7438077,7.04566929 17.2964182,6.75527559 C16.8499793,6.4592126 16.2413142,6.26551181 15.4593332,6.15401575 C14.6855903,6.04913386 13.6529825,5.98488189 12.3957294,5.98488189 C11.0814437,5.98488189 10.0383799,6.04913386 9.25925059,6.15401575 C8.47885384,6.26551181 7.87018873,6.45007874 7.43547321,6.72818898 C7.00962943,7.00818898 6.73016944,7.40031496 6.59677642,7.89385827 C6.45958121,8.38866142 6.38987464,9.01574803 6.38987464,9.79559055 L6.38987464,17.5609449 L10.0938284,17.5609449 L10.0938284,17.5609449 Z M35.6805758,33.5181102 L35.6805758,30.5448819 L27.9342747,30.5448819 L35.4518115,24.8680315 L35.4518115,22.0626772 L22.4778344,22.0626772 L22.4778344,25.0299213 L29.5777655,25.0299213 L22.157501,30.7187402 L22.157501,33.5181102 L35.6805758,33.5181102 L35.6805758,33.5181102 Z M12.6995867,33.6529134 C13.972999,33.6529134 15.0464802,33.6170079 15.9285852,33.5480315 L16.6833173,33.4699213 L16.6256509,32.8497638 C16.5416862,31.5159055 16.5008128,29.8374803 16.5008128,27.8053543 C16.5008128,26.2409449 16.5416862,24.8532283 16.6256509,23.6393701 L16.6418102,23.4264567 L16.458672,23.4384252 C15.2606695,23.5162205 13.9124811,23.5524409 12.4172751,23.5524409 C10.2186665,23.5524409 8.40914727,23.504252 6.96875603,23.4116535 L6.35628875,23.3514961 L6.25172889,23.7080315 C6.0229646,24.5924409 5.91745419,25.9562205 5.91745419,27.7993701 C5.91745419,30.7335433 6.20451853,32.424252 6.76787436,32.9007874 C7.32806172,33.3952756 9.31121367,33.6529134 12.6995867,33.6529134 L12.6995867,33.6529134 Z M12.6995867,39.5666142 C8.2088993,39.5666142 5.26823254,39.3779528 3.86522937,39.0031496 C2.10577214,38.5055118 0.997754512,37.4447244 0.538958534,35.8050394 C0.176484364,34.5250394 0,31.8667717 0,27.7993701 C0,25.0091339 0.133393029,22.7788976 0.41285301,21.1127559 L0.635914038,20.0365354 L0.531671029,19.7729134 C0.176484364,18.5108661 0,15.8570079 0,11.8009449 C0,6.21858268 0.543394407,2.88031496 1.63208431,1.80503937 C2.82723516,0.597165354 6.41870781,0 12.4172751,0 C15.40135,0 17.7900675,0.147716535 19.5793084,0.442204724 L20.4481058,0.618267717 L21.2614547,0.454173228 C23.1048767,0.153700787 25.5594986,0 28.6313404,0 C34.733517,0 38.3953299,0.58015748 39.6266015,1.78488189 C40.7533131,2.87433071 41.3347293,6.22299213 41.3347293,11.8009449 C41.3347293,15.2913386 41.1142031,17.904252 40.6709326,19.6365354 L40.6259402,19.7940157 L40.6741011,19.9675591 C41.1142031,21.7092913 41.3347293,24.3256693 41.3347293,27.8053543 C41.3347293,33.3833071 40.7808789,36.7190551 39.6722276,37.8132283 C38.4894338,38.976063 34.9008128,39.5666142 28.9142857,39.5666142 C25.6216008,39.5666142 23.1818708,39.4614173 21.592561,39.2491339 L20.4816917,39.0418898 L20.0396887,39.1231496 C18.2045048,39.4198425 15.7549525,39.5666142 12.6995867,39.5666142 L12.6995867,39.5666142 Z" id="Fill-1"></path>
                <path d="M68.5218487,18.735748 L61.6826836,18.735748 L61.7495385,17.3023622 C61.8151261,16.8359055 61.965312,16.4727559 62.1912247,16.2125984 C62.4203058,15.9480315 62.764086,15.7659843 63.2117923,15.6655118 C63.6594986,15.5543307 64.2694311,15.4979528 65.0457088,15.4979528 C65.8074115,15.4979528 66.431919,15.5543307 66.8872296,15.6655118 C67.3498278,15.7659843 67.6888552,15.9669291 67.9236396,16.2431496 C68.1619094,16.5325984 68.3105111,16.9061417 68.3849704,17.3770079 L68.5218487,18.735748 L68.5218487,18.735748 Z M74.2691555,29.0324409 L68.3330073,29.0324409 L68.387822,23.4132283 L61.5429536,23.4132283 L61.5309133,29.0324409 L55.8979887,29.0324409 L55.8979887,16.7785827 C55.8979887,15.5480315 56.0009643,14.5533858 56.2031134,13.7788976 C56.4052624,12.9974803 56.8412454,12.3905512 57.4882491,11.9455118 C58.1381044,11.5023622 59.0588649,11.1949606 60.2546494,11.0308661 C61.4475823,10.863622 63.0391101,10.7710236 65.0457088,10.7710236 C66.9572531,10.7710236 68.5158286,10.863622 69.7027414,11.0308661 C70.8928227,11.1949606 71.8268908,11.5137008 72.5109657,11.9725984 C73.192189,12.439685 73.6532029,13.0645669 73.8943243,13.8522835 C74.1440006,14.6444094 74.2691555,15.671811 74.2691555,16.9348031 L74.2691555,29.0324409 Z M76.30332,10.7710236 L96.8677091,10.7710236 L96.8677091,15.240315 L84.9573908,24.3061417 L97.232718,24.3061417 L97.232718,29.0324409 L75.7998485,29.0324409 L75.7998485,24.5644094 L87.5545943,15.4982677 L76.30332,15.4982677 L76.30332,10.7710236 Z M118.665588,19.9152756 C118.665588,24.2381102 118.217248,26.8261417 117.333241,27.6670866 C116.37636,28.576378 113.50445,29.0324409 108.707687,29.0324409 C105.194793,29.0324409 102.90113,28.8834646 101.794063,28.5949606 C100.418308,28.2100787 99.5501446,27.3877165 99.1870368,26.1124409 C98.8987051,25.1288189 98.7634109,23.0651969 98.7634109,19.9152756 C98.7634109,15.583937 99.1917895,13.0006299 100.072627,12.1644094 C101.021587,11.2302362 103.901419,10.7710236 108.707687,10.7710236 C113.490508,10.7710236 116.360835,11.2195276 117.317716,12.1395276 C118.212495,12.9937008 118.665588,15.583937 118.665588,19.9152756 Z M103.398898,19.9152756 C103.398898,22.1823622 103.622276,23.5058268 104.069348,23.871811 C104.505014,24.2440945 106.048064,24.4459843 108.707687,24.4459843 C111.365725,24.4459843 112.931905,24.2440945 113.378661,23.871811 C113.811475,23.5058268 114.037388,22.1823622 114.037388,19.9152756 C114.037388,17.6267717 113.811475,16.2954331 113.378661,15.9074016 C112.931905,15.5404724 111.374914,15.3675591 108.729233,15.3675591 C106.054085,15.3675591 104.505014,15.5404724 104.069348,15.9074016 C103.622276,16.2954331 103.398898,17.6267717 103.398898,19.9152756 Z M120.19628,29.0324409 L120.19628,10.7710236 L138.56713,10.7710236 L138.56713,15.4982677 L125.489861,15.4982677 L125.489861,18.6267717 L137.834578,18.6267717 L137.834578,23.3530709 L125.489861,23.3530709 L125.489861,29.0324409 L120.19628,29.0324409 Z M140.09814,15.4982677 L140.09814,10.7710236 L160,10.7710236 L160,15.4982677 L152.631382,15.4982677 L152.631382,29.0324409 L147.483868,29.0324409 L147.483868,15.4982677 L140.09814,15.4982677 Z" id="Combined-Shape"></path>
            </g>
        </g>
    </g>
</svg>