<?xml version="1.0" encoding="UTF-8"?>
<svg width="120px" height="50px" viewBox="0 0 120 50" version="1.1" xmlns="http://www.w3.org/2000/svg" xmlns:xlink="http://www.w3.org/1999/xlink">
    <!-- Generator: Sketch 53.2 (72643) - https://sketchapp.com -->
    <title>WU</title>
    <desc>Created with Sketch.</desc>
    <g id="Page-1" stroke="none" stroke-width="1" fill="none" fill-rule="evenodd">
        <g id="Artboard-Copy-31" fill="#FFFFFF" fill-rule="nonzero">
            <g id="western-union-2" transform="translate(16.000000, 13.000000)">
                <path d="M37.83,3.54185419 L33.8374576,3.54185419 L33.8374576,2.87189674 C33.8374576,2.45879036 33.5542373,2.10083291 32.9054237,2.07376908 C32.5215254,2.0553861 32.1015254,2.51444993 32.0740678,2.9086627 C32.0466102,3.50457759 32.7594915,3.83547121 33.5720339,4.07393929 C36.3767797,4.89044993 37.9479661,5.47768397 37.8930508,7.78015206 C37.8472881,9.69759887 35.9837288,10.8996414 32.8779661,10.8904499 C30.7677966,10.8812584 27.7988136,10.6060244 27.7530508,7.38593929 L31.8823729,7.38593929 C31.8823729,7.56925844 31.8915254,7.76227972 31.8823729,7.95479036 C31.8457627,8.459301 32.3486441,8.771301 32.7411864,8.78049248 C33.3808475,8.79887546 33.6823729,8.32193929 33.709322,7.88125844 C33.7550847,7.12908823 32.8688136,6.8446627 32.3115254,6.74355631 C29.4615254,6.26610951 27.7988136,5.17436483 27.9172881,3.275301 C28.090678,0.51376908 31.0230508,0.0184499314 33.0422034,6.69526837e-05 C35.0257627,-0.00912453668 37.7298305,0.926875463 37.83,3.54185419 Z M66.0498305,12.7527478 L67.8950847,12.7527478 C70.5345763,12.7527478 72.699661,14.9178542 72.699661,17.5690882 L72.699661,18.9084925 C72.699661,21.5602372 70.5345763,23.7258542 67.8950847,23.7258542 L66.0498305,23.7258542 C63.409322,23.7258542 61.2528814,21.5607478 61.2528814,18.9084925 L61.2528814,17.5690882 C61.2533898,14.9178542 63.409322,12.7527478 66.0498305,12.7527478 Z M38.5062712,13.3210882 L38.5062712,19.7796414 C38.5062712,21.936067 36.7520339,23.6972584 34.6052542,23.6972584 L31.9011864,23.6972584 C29.7635593,23.6972584 28.0098305,21.936067 28.0098305,19.7796414 L28.0098305,13.3210882 L32.2484746,13.3210882 L32.2484746,19.8715563 C32.2484746,20.4312159 32.7050847,20.8897691 33.2532203,20.8897691 C33.8124855,20.8880867 34.2654434,20.4332013 34.2671186,19.8715563 L34.2671186,13.3210882 L38.5062712,13.3210882 Z M54.63,23.459301 L54.63,13.3210882 L58.9423729,13.3210882 L58.9423729,23.459301 L54.63,23.459301 Z M74.9471186,13.3210882 L80.200678,13.3210882 L82.0184746,18.101684 L82.0184746,13.3210882 L85.4257627,13.3210882 L85.4257627,23.459301 L80.410678,23.459301 L78.3188136,17.9730031 L78.3188136,23.459301 L74.9471186,23.459301 L74.9471186,13.3210882 Z M41.3837288,13.3210882 L46.6276271,13.3210882 L48.4449153,18.101684 L48.4449153,13.3210882 L51.8532203,13.3210882 L51.8532203,23.459301 L46.8284746,23.459301 L44.7452542,17.9730031 L44.7452542,23.459301 L41.3837288,23.459301 L41.3837288,13.3210882 Z M75.0030508,0.431556314 L80.2642373,0.431556314 L82.0830508,5.21113078 L82.0830508,0.431556314 L85.4811864,0.431556314 L85.4811864,10.5692584 L80.4650847,10.5692584 L78.3823729,5.08296057 L78.3823729,10.5692584 L75.0030508,10.5692584 L75.0030508,0.431556314 Z M67.4018644,7.07393929 L66.4057627,7.07393929 L66.4057627,10.5692584 L62.2586441,10.5692584 L62.2586441,0.431556314 L69.9325424,0.431556314 C71.0837288,0.431556314 72.2715254,1.11989674 72.3167797,2.96381163 C72.3447458,4.03717334 71.9333898,4.93589674 70.38,5.53232227 C71.659322,5.80755631 72.2618644,6.76193929 72.2618644,7.73419461 L72.2618644,9.44023717 C72.2618644,9.82576908 72.3076271,10.1924074 72.5450847,10.5687478 L68.4244068,10.5687478 C68.16,10.2659393 68.0776271,9.81657759 68.0776271,9.4126627 L68.0776271,8.18304568 C68.0781356,7.6606627 67.8305085,7.07393929 67.4018644,7.07393929 Z M39.1088136,0.431556314 L48.7835593,0.431556314 L48.7835593,2.9086627 L46.0794915,2.9086627 L46.0794915,10.5692584 L41.8042373,10.5692584 L41.8042373,2.9086627 L39.1088136,2.9086627 L39.1088136,0.431556314 Z M50.7661017,0.431556314 L59.2433898,0.431556314 L59.2433898,2.84432227 L54.8588136,2.84432227 L54.8588136,4.17453504 L59.2433898,4.17453504 L59.2433898,6.70679036 L54.8588136,6.70679036 L54.8588136,8.03700312 L59.2433898,8.03700312 L59.2433898,10.5692584 L50.7661017,10.5692584 L50.7661017,0.431556314 Z M17.0923729,0.431556314 L25.579322,0.431556314 L25.579322,2.84432227 L21.1942373,2.84432227 L21.1942373,4.17453504 L25.579322,4.17453504 L25.579322,6.70679036 L21.1942373,6.70679036 L21.1942373,8.03700312 L25.579322,8.03700312 L25.579322,10.5692584 L17.0923729,10.5692584 L17.0923729,0.431556314 Z M7.60067797,4.835301 L6.5959322,10.5692584 L2.23830508,10.5692584 L2.34479103e-13,0.431556314 L3.56288136,0.431556314 L4.57677966,5.66100312 L5.46305085,0.431556314 L9.77491525,0.431556314 L10.6972881,5.66100312 L11.5749153,0.431556314 L15.2013559,0.431556314 L13.0271186,10.5692584 L8.61457627,10.5692584 L7.60067797,4.835301 Z M88.6322034,0.458620144 L89.3633898,0.458620144 L89.3633898,23.1748755 L88.6322034,23.1748755 L88.6322034,0.458620144 Z M66.9727119,15.1655138 C65.8942373,15.1655138 65.720339,16.5508755 65.720339,18.2395563 C65.720339,19.9364074 65.8942373,21.3125776 66.9727119,21.3125776 C68.059322,21.3125776 68.2240678,19.9358967 68.2240678,18.2395563 C68.2240678,16.5508755 68.059322,15.1655138 66.9727119,15.1655138 Z M67.3561017,4.75257759 C67.9677966,4.75257759 68.2876271,4.20210951 68.2876271,3.65164142 C68.2876271,3.10117334 67.9866102,2.55070525 67.3561017,2.55070525 L66.4245763,2.55070525 L66.4245763,4.75257759 L67.3561017,4.75257759 Z" id="Combined-Shape"></path>
            </g>
        </g>
    </g>
</svg>