<svg xmlns="http://www.w3.org/2000/svg" width="87" height="85" viewBox="0 0 87 85">
    <g fill="none" fill-rule="evenodd" transform="translate(-3)">
        <rect width="76" height="60" x="14" fill="#C8ECF8" fill-rule="nonzero" rx="6"/>
        <path d="M0 0h90v90H0z"/>
        <path fill="#0F6FA6" fill-rule="nonzero" d="M3.6 67.172V38.279c0-4.24 3.473-7.679 7.761-7.679h42.078c4.288 0 7.761 3.438 7.761 7.679v28.893c0 4.244-3.47 7.678-7.772 7.678H24.941l-12.578 9.443c-.8.6-1.449.278-1.449-.725v-8.73c-4.08-.226-7.314-3.573-7.314-7.666zm19.801 3.163h30.027c1.775 0 3.2-1.41 3.2-3.163V38.279c0-1.75-1.428-3.164-3.189-3.164H11.361c-1.76 0-3.19 1.415-3.19 3.164v28.893a3.172 3.172 0 0 0 3.183 3.163h4.132v5.942l7.915-5.942zM21.43 55.62c-1.515 0-2.743-1.213-2.743-2.709s1.228-2.709 2.743-2.709c1.514 0 2.742 1.213 2.742 2.71 0 1.495-1.228 2.708-2.742 2.708zm10.971 0c-1.515 0-2.743-1.213-2.743-2.709s1.228-2.709 2.743-2.709 2.743 1.213 2.743 2.71c0 1.495-1.228 2.708-2.743 2.708zm10.971 0c-1.514 0-2.742-1.213-2.742-2.709s1.228-2.709 2.742-2.709c1.515 0 2.743 1.213 2.743 2.71 0 1.495-1.228 2.708-2.743 2.708z"/>
        <path fill="#0F6FA6" fill-rule="nonzero" d="M79.459 59.093c.8.6 1.45.277 1.45-.726v-8.736c3.067-.232 5.491-2.763 5.491-5.838V14.855C86.4 11.617 83.727 9 80.437 9H38.363C35.07 9 32.4 11.626 32.4 14.874v12.643h4.576V14.874c0-.75.618-1.358 1.387-1.358h42.074c.77 0 1.387.604 1.387 1.339v28.938c0 .73-.619 1.338-1.375 1.338h-4.117v5.944l-7.924-5.944h-4.432v4.517h2.89l12.593 9.445z"/>
    </g>
</svg>
