<?xml version="1.0" encoding="UTF-8"?>
<svg width="120px" height="50px" viewBox="0 0 120 50" version="1.1" xmlns="http://www.w3.org/2000/svg" xmlns:xlink="http://www.w3.org/1999/xlink">
    <!-- Generator: Sketch 53.2 (72643) - https://sketchapp.com -->
    <title>7/11</title>
    <desc>Created with Sketch.</desc>
    <g id="Page-1" stroke="none" stroke-width="1" fill="none" fill-rule="evenodd">
        <g id="Artboard-Copy-35" fill="#FFFFFF" fill-rule="nonzero">
            <path d="M97.8729765,17.0366062 L98.2593046,17 L98.663431,17.0366062 L99.2879423,17.1268327 L99.6559486,17.2170593 L99.9862643,17.3619373 L100.243816,17.5248606 L100.446403,17.687784 L100.776719,18.0682822 L101.034271,18.520446 L101.236858,19.0453066 L101.364587,19.6243032 L101.364587,32.9097735 L96.8260169,32.9097735 L96.8260169,21.886669 L96.6600739,21.507202 L96.3297581,21.2174459 L95.9617518,21.018432 L95.5398271,20.9637805 L95.1718209,21.018432 L94.7493727,21.2715819 L94.5101424,21.5793832 L94.2902809,21.995972 L94.2902809,32.9097735 L89.7323425,32.9097735 L89.7323425,17.4165888 L94.2902809,17.4165888 L94.2902809,18.9184739 L94.8781487,18.4302194 L95.245108,18.1043728 L95.5026601,17.8687526 L95.8329758,17.687784 L96.2198274,17.4892856 L96.6783956,17.2897561 L97.2112981,17.1268327 L97.8729765,17.0366062 L97.8729765,17.0366062 Z M50.2216595,17.4165888 L50.2216595,29.4708536 L53.4745629,29.4708536 L53.4745629,32.9097735 L45.6087558,32.9097735 L45.6087558,17.4165888 L50.2216595,17.4165888 Z M70.08667,17.4165888 L71.8329986,27.2992299 L73.7620215,17.4165888 L77.3274423,17.4165888 L74.3326145,32.9097735 L67.5142904,32.9097735 L65.2167377,17.4165888 L70.08667,17.4165888 L70.08667,17.4165888 Z M87.1966065,17.4165888 L87.1966065,20.8555087 L83.4108008,20.8555087 L83.4108008,23.6793413 L87.1966065,23.6793413 L87.1966065,26.6470209 L83.4108008,26.6470209 L83.4108008,29.4708536 L87.1966065,29.4708536 L87.1966065,32.9097735 L78.8345406,32.9097735 L78.8345406,17.4165888 L87.1966065,17.4165888 Z M31.9543093,23.715432 L31.9543093,26.6836271 L26.6064399,26.6836271 L26.6064399,23.715432 L31.9543093,23.715432 Z M42.6134045,17.4165888 L42.6134045,20.8555087 L38.7537881,20.8555087 L38.7537881,23.6793413 L42.6134045,23.6793413 L42.6134045,26.6470209 L38.7537881,26.6470209 L38.7537881,29.4708536 L42.6134045,29.4708536 L42.6134045,32.9097735 L34.214695,32.9097735 L34.214695,17.4165888 L42.6134045,17.4165888 Z M63.5080997,17.4165888 L63.5080997,20.8555087 L59.6668051,20.8555087 L59.6668051,23.6793413 L63.5080997,23.6793413 L63.5080997,26.6470209 L59.6668051,26.6470209 L59.6668051,29.4708536 L63.5080997,29.4708536 L63.5080997,32.9097735 L55.0915919,32.9097735 L55.0915919,17.4165888 L63.5080997,17.4165888 Z M14,21.1086585 L19.3661912,21.1086585 L20.5785703,19.7877421 L21.2407722,19.1721393 L22.0678703,18.520446 L22.7839906,18.031676 L23.6843758,17.4892856 L14,17.4892856 L14,21.1086585 Z M25.7610201,17.3531724 C22.7724741,18.0889054 19.8545978,20.9405794 18.9672996,23.0328038 C17.0764906,27.2631392 17.403142,32.942255 17.403142,32.942255 C17.403142,32.942255 20.6717497,32.9195695 22.049025,32.9195695 C21.9961536,28.9011375 22.0254684,26.4124319 22.6091484,24.458383 C23.1923048,22.5038185 25.7610201,21.2164148 25.7610201,21.2164148 L25.7610201,17.3531724 L25.7610201,17.3531724 Z M102.671192,31.1980472 C102.671192,30.3473399 103.322401,29.704927 104.156828,29.704927 C104.981832,29.704927 105.634088,30.3468243 105.634088,31.1980472 C105.634088,32.0631908 104.981832,32.6999323 104.156828,32.6999323 C103.322401,32.6999323 102.671192,32.0631908 102.671192,31.1980472 Z M104.156828,33 C105.151439,33 106,32.2390036 106,31.1985628 C106,30.1668869 105.151439,29.4064061 104.156828,29.4064061 C103.152794,29.4064061 102.304233,30.1668869 102.304233,31.1985628 C102.304233,32.2390036 103.152794,33 104.156828,33 Z M103.771023,31.340863 L104.136935,31.340863 L104.692348,32.2390036 L105.049361,32.2390036 L104.451023,31.3259111 C104.759876,31.2882738 104.995966,31.1263816 104.995966,30.756195 C104.995966,30.3473399 104.750454,30.1663713 104.253671,30.1663713 L103.452224,30.1663713 L103.452224,32.2390036 L103.771023,32.2390036 L103.771023,31.340863 L103.771023,31.340863 Z M103.771023,31.0748236 L103.771023,30.4329262 L104.204464,30.4329262 C104.42642,30.4329262 104.663556,30.4808752 104.663556,30.7371186 C104.663556,31.0557471 104.422232,31.0748236 104.152116,31.0748236 L103.771023,31.0748236 Z" id="Shape"></path>
        </g>
    </g>
</svg>