<?xml version="1.0" encoding="UTF-8"?>
<svg xmlns="http://www.w3.org/2000/svg" width="143" height="36" viewBox="0 0 143 36">
    <g fill="none" fill-rule="evenodd">
        <path fill="#fff" d="M9.108 9.934l.042-.82c.037-.26.123-.47.255-.62.137-.148.337-.259.602-.314.262-.062.619-.092 1.072-.092.453 0 .813.03 1.08.092.275.055.483.169.612.334.136.159.222.376.278.645l.077.775H9.108zm22.135 4.743l.125-.403c.196-.786.298-2.001.298-3.653 0-2.655-.262-4.199-.749-4.653-.515-.417-2.287-.619-5.305-.619-1.523 0-2.73.054-3.619.156l-.042.005.042.306c.142 1.323.212 2.923.212 4.805 0 1.253-.033 2.381-.093 3.385l-.046.526.983-.06a64.554 64.554 0 0 1 2.793-.056c1.996 0 3.7.076 5.102.223l.299.038zM9.021 15.805l.01-3.202h4.018l-.042 3.202h3.482v-6.9c0-.717-.075-1.303-.218-1.759a1.942 1.942 0 0 0-.812-1.066c-.4-.267-.943-.441-1.642-.541-.692-.095-1.615-.153-2.738-.153-1.175 0-2.107.058-2.804.153-.697.1-1.241.266-1.63.516a1.77 1.77 0 0 0-.75 1.05c-.122.445-.184 1.01-.184 1.711v6.989h3.31zM31.89 30.166V27.49h-6.924l6.72-5.109v-2.525H20.09v2.67h6.345l-6.632 5.12v2.52H31.89zm-20.54.122c1.138 0 2.098-.033 2.886-.095l.675-.07-.052-.558c-.075-1.2-.111-2.711-.111-4.54 0-1.408.036-2.657.111-3.75l.015-.191-.164.01c-1.07.07-2.276.103-3.612.103-1.965 0-3.582-.043-4.87-.127l-.547-.054-.094.321c-.204.796-.298 2.024-.298 3.682 0 2.641.256 4.163.76 4.592.5.445 2.273.677 5.301.677zm0 5.322c-4.013 0-6.642-.17-7.895-.507C1.882 34.655.892 33.7.482 32.225.158 31.073 0 28.68 0 25.019c0-2.51.12-4.518.369-6.018l.2-.968-.094-.237C.158 16.66 0 14.27 0 10.62c0-5.024.486-8.029 1.459-8.996C2.527.537 5.737 0 11.098 0c2.667 0 4.802.133 6.401.398l.776.158.727-.147C20.65.139 22.844 0 25.59 0c5.454 0 8.727.522 9.827 1.606 1.007.98 1.527 3.995 1.527 9.015 0 3.141-.197 5.493-.593 7.052l-.04.142.042.156c.394 1.567.59 3.922.59 7.054 0 5.02-.494 8.022-1.485 9.007-1.057 1.046-4.264 1.578-9.615 1.578-2.943 0-5.123-.095-6.544-.286l-.992-.186-.396.073c-1.64.267-3.829.399-6.56.399z"/>
        <path fill="#fff" d="M61.241 16.862H55.13l.06-1.29c.058-.42.192-.747.394-.98.205-.239.512-.403.913-.493.4-.1.945-.15 1.639-.15.68 0 1.239.05 1.645.15.414.09.717.271.927.52.213.26.346.597.412 1.02l.122 1.223zm5.137 9.267h-5.305l.049-5.057h-6.118l-.01 5.057h-5.035V15.101c0-1.108.092-2.003.273-2.7.18-.703.57-1.25 1.148-1.65.58-.399 1.404-.676 2.473-.823 1.066-.15 2.488-.234 4.282-.234 1.708 0 3.101.083 4.162.234 1.063.147 1.898.434 2.51.847.609.42 1.02.983 1.236 1.692.223.713.335 1.638.335 2.774V26.13zm1.818-16.435h18.38v4.022l-10.645 8.16H86.9v4.253H67.747v-4.021l10.506-8.16H68.196V9.694zm37.861 8.23c0 3.89-.4 6.22-1.19 6.976-.856.819-3.422 1.23-7.71 1.23-3.14 0-5.19-.135-6.179-.395-1.23-.346-2.005-1.086-2.33-2.234-.257-.885-.378-2.742-.378-5.577 0-3.898.383-6.223 1.17-6.976.848-.84 3.422-1.254 7.717-1.254 4.275 0 6.84.404 7.696 1.232.8.768 1.204 3.1 1.204 6.998zm-13.644 0c0 2.04.2 3.231.599 3.56.39.336 1.768.517 4.145.517 2.376 0 3.776-.181 4.175-.516.387-.33.589-1.52.589-3.561 0-2.06-.202-3.258-.589-3.607-.4-.33-1.79-.486-4.155-.486-2.391 0-3.776.155-4.165.486-.4.349-.6 1.547-.6 3.607zm15.012 8.205V9.694h16.42v4.254h-11.688v2.816h11.033v4.254h-11.033v5.111h-4.732zm17.788-12.18V9.693H143v4.254h-6.586V26.13h-4.6V13.95h-6.601z"/>
    </g>
</svg>